<?xml version="1.0" encoding="UTF-8"?>
<svg id="Layer_1" xmlns="http://www.w3.org/2000/svg" version="1.1" viewBox="0 0 547 360">
  <!-- Generator: Adobe Illustrator 29.6.0, SVG Export Plug-In . SVG Version: 2.1.1 Build 207)  -->
  <defs>
    <style>
      .st0 {
        fill: #0564a1;
      }

      .st1 {
        fill: #fe9900;
      }

      .st2 {
        fill: #712924;
      }

      .st3 {
        fill: #f0574c;
      }

      .st4 {
        fill: #fdf1d9;
      }

      .st5 {
        fill: #fece00;
      }

      .st6 {
        fill: #f6ba3d;
      }

      .st7 {
        fill: #111214;
      }

      .st8 {
        fill: #59a5da;
      }
    </style>
  </defs>
  <path class="st6" d="M110.92,207.66c-11.85,2.21-18.89,14.45-14.95,25.84,24.38,70.42,97.24,114.31,172.71,100.23,75.47-14.08,127.61-81.29,124.96-155.76-.43-12.04-11.41-20.92-23.26-18.71l-259.46,48.4Z"/>
  <path class="st4" d="M220.94,77.83c1.81,9.72-.49,19.26-5.67,26.82-4.53,6.61-11.28,11.72-19.41,14.11l-2.21-32.12-27.92,37.92-45.58,8.5-27.92,37.92-2.21-32.12-.03-.36c-18.11,1.53-34.79-10.89-38.19-29.13-1.81-9.72.49-19.26,5.67-26.81,5.19-7.56,13.25-13.14,22.98-14.96l98.71-18.41c19.44-3.63,38.15,9.19,41.78,28.63Z"/>
  <path class="st0" d="M234.08,148.26c1.81,9.72-.49,19.26-5.67,26.81-5.18,7.56-13.25,13.14-22.98,14.96l-98.71,18.41c-19.44,3.63-38.15-9.19-41.78-28.63-1.81-9.72.49-19.26,5.67-26.82,4.54-6.62,11.28-11.72,19.41-14.11l2.21,32.12,27.92-37.92,45.58-8.5,27.92-37.92,2.21,32.12.03.36c18.11-1.53,34.79,10.89,38.19,29.13Z"/>
  <rect class="st4" x="318.3" y="36.14" width="118.8" height="122.37" transform="translate(34.49 -87.98) rotate(13.92)"/>
  <polygon class="st3" points="426.71 62.4 423.82 74.04 346.07 54.78 348.95 43.13 426.71 62.4"/>
  <polygon class="st3" points="421.78 82.3 418.89 93.95 341.14 74.69 344.02 63.04 421.78 82.3"/>
  <polygon class="st3" points="389.23 93.99 386.35 105.65 336.53 93.3 339.42 81.65 389.23 93.99"/>
  <circle class="st8" cx="279.77" cy="149.81" r="25.56"/>
  <polygon class="st0" points="279.77 31.89 329.93 43.13 309.83 124.25 263.68 112.78 279.77 31.89"/>
  <g>
    <rect class="st5" x="429.11" y="143.76" width="48.41" height="115.86" transform="translate(95.76 -142.29) rotate(19.91)"/>
    <polygon class="st7" points="485.55 129.55 474.82 125.59 482.36 121.47 485.55 129.55"/>
    <polygon class="st1" points="495.8 155.46 450.28 138.98 474.82 125.59 485.55 129.55 495.8 155.46"/>
    <path class="st2" d="M404.61,255.31h48.41v17.14c0,6.04-4.91,10.95-10.95,10.95h-26.51c-6.04,0-10.95-4.91-10.95-10.95v-17.14h0Z" transform="translate(117.33 -129.91) rotate(19.91)"/>
  </g>
</svg>