<?xml version="1.0" encoding="UTF-8"?>
<svg xmlns="http://www.w3.org/2000/svg" version="1.1" viewBox="0 0 1350 1080">
  <!-- Generator: Adobe Illustrator 29.6.0, SVG Export Plug-In . SVG Version: 2.1.1 Build 207)  -->
  <defs>
    <style>
      .st0 {
        fill: #0564a1;
      }

      .st1 {
        fill: #f0574c;
      }

      .st2 {
        fill: #e5a53e;
      }

      .st3 {
        fill: #fff;
      }

      .st4 {
        fill: #f6ba3d;
      }

      .st5 {
        fill: #2aa375;
      }

      .st6 {
        stroke: #fff;
      }

      .st6, .st7, .st8, .st9, .st10 {
        fill: none;
        stroke-miterlimit: 10;
      }

      .st7 {
        stroke: #3e3e3e;
      }

      .st7, .st9 {
        stroke-linecap: round;
        stroke-width: 4px;
      }

      .st11 {
        fill: #fd5c50;
      }

      .st12 {
        fill: #b44139;
      }

      .st13 {
        fill: #bcbec0;
      }

      .st14 {
        fill: #231f20;
      }

      .st15 {
        display: none;
      }

      .st8 {
        stroke-width: 2px;
      }

      .st8, .st9, .st10 {
        stroke: #231f20;
      }

      .st16 {
        fill: #59a5da;
      }

      .st17 {
        fill: #f6700f;
      }

      .st18 {
        fill: #3eefac;
      }

      .st19 {
        fill: #e6e7e8;
      }
    </style>
  </defs>
  <g id="Layer_2">
    <path class="st3" d="M1101.54,594.71c0,37.9-17.14,72.23-44.86,97.07-10.23,9.17-21.9,17.05-34.68,23.34-17.64,8.68-37.4,14.34-58.4,16.19h-.02c-5,.45-10.08.67-15.21.67H334.71c-84.59,0-153.17-61.46-153.17-137.27,0-37.91,17.14-72.23,44.86-97.07,27.72-24.84,66.02-40.2,108.31-40.2h613.66c18.36,0,35.97,2.89,52.29,8.21,58.85,19.15,100.88,69.71,100.88,129.06Z"/>
    <path class="st18" d="M1034.05,520.62l-12.05,192.54c-17.64,9.68-37.4,16-58.4,18.07h-.02c-5,.5-10.08.75-15.21.75h-287.19l-43.36-132.93c-22.47-68.9,7.96-139.13,64.23-173.41,22.25-13.56,48.55-21.49,77.21-21.49h165.38c29.62,0,56.36,11.71,76.02,30.65,22.31,21.47,35.49,52.27,33.39,85.82Z"/>
    <rect class="st0" x="728.3" y="221.73" width="186.62" height="186.62" rx="33.2" ry="33.2" transform="translate(17.87 673.24) rotate(-45)"/>
    <path class="st0" d="M1028.16,614.74l-6.16,98.42c-17.64,9.68-37.4,16-58.4,18.07h-.02v-101.36s29.16-16.2,64.58-15.13Z"/>
    <path class="st11" d="M853.42,514.31l70.2-9.72,6.46,47.82c2.43,17.97-9.69,34.67-27.52,37.94h0c-18.27,3.35-35.83-8.6-39.43-26.82l-9.72-49.22Z"/>
    <path class="st0" d="M679.7,451.42c-10.8-31.94-37.77-55.73-70.81-62.46l-22.6-4.61-2.88-16.7c-.42-2.41-2.51-4.18-4.96-4.18-3.08,0-5.43,2.74-4.97,5.78l5.25,34.9,3.24,8.28-18-15.48-12.08-27.01c-.96-2.16-3.17-3.49-5.53-3.34-3.79.24-6.28,4.06-4.96,7.62l11.05,29.94-7.56-2.52-31.38-22.51c-2.49-1.79-5.88-1.61-8.17.43-3.03,2.7-2.91,7.48.26,10.01l45.06,36.07,78.84,31.8,24.48,183.24-28.77-18.97,35.97,110.27h113.4l-94.88-280.56ZM603.22,410.63c-1.09.71-7.31,2.7-10.8-11.52,15.83,7.75,11.89,10.81,10.8,11.52Z"/>
    <circle class="st14" cx="800.04" cy="292.3" r="2.5"/>
    <circle class="st14" cx="833.38" cy="292.3" r="2.5"/>
    <path class="st9" d="M816.45,339.17c10.67,0,19.55-7.67,21.41-17.8.38-2.07-1.23-3.97-3.33-3.97h-36.17c-2.1,0-3.71,1.91-3.33,3.97,1.87,10.13,10.74,17.8,21.41,17.8Z"/>
    <polygon class="st18" points="653.98 640.67 610.38 612.79 610.38 541.12 653.98 640.67"/>
  </g>
  <g id="Layer_1">
    <path class="st3" d="M334.71,811.24h613.66c84.59,0,153.17,61.3,153.17,136.91h0c0,75.61-68.58,136.91-153.17,136.91H334.71c-84.59,0-153.17-61.3-153.17-136.91h0c0-75.61,68.58-136.91,153.17-136.91Z"/>
    <path class="st1" d="M571.03,786.63c-7.53,0-5.05,36.06-5.05,36.06l-93.82,6.69v-21.37l98.88-21.37Z"/>
    <path class="st16" d="M438.46,810.59h192.33c68.67,0,126.35,51.67,133.87,119.93l17.03,154.53h-463.32l-13.78-125.03c-8.79-79.74,53.65-149.43,133.87-149.43Z"/>
    <path class="st1" d="M299.56,643.17c9.16,24.35,33.85,38.32,58.59,34.88.65-.15,1.31-.25,1.96-.31,6.92-.68,13.71,3.11,16.65,9.67.14.31.27.62.39.94s.23.64.33.97l45.07,119.84c6.06,16.12,24.04,24.27,40.15,18.2l144.36-54.3c16.12-6.06,24.27-24.04,18.2-40.15l-54.3-144.36c-6.06-16.12-24.04-24.27-40.15-18.2l-107.98,40.62c-.33.15-.67.29-1.02.42s-.7.25-1.04.35c-7.71,2.34-15.97-1.27-19.53-8.43h0c-.25-.51-.47-1.03-.67-1.56l-.06-.15c-11.69-26.15-41.89-39-69.07-28.78-28.23,10.62-42.51,42.12-31.89,70.35Z"/>
    <path class="st1" d="M781.06,787.31l-5.51-1.08c-2.48-.48-4.23-2.7-4.14-5.22.1-2.77,2.38-4.93,5.1-4.93.14,0,.29.01.43.02h.03c1.96,3.46,3.35,7.25,4.09,11.21Z"/>
    <path class="st10" d="M761.48,762.7c-.09.53-.26,1.04-.51,1.53l.56-3.01c.05.5.03.99-.05,1.48Z"/>
    <g>
      <path class="st19" d="M754.57,743.87l-3.24,17.35-.56,3.01-13.64,73.12c-1.48,8.47-23.13,11.75-48.35,7.35-25.23-4.41-44.48-14.84-43-23.31l17.44-93.47c-.62,3.55,2.41,7.44,7.99,11.09,7.73,5.06,20.36,9.65,35.01,12.21,14.65,2.56,28.09,2.53,37.08.39,6.49-1.55,10.65-4.19,11.27-7.74Z"/>
      <path class="st13" d="M754.57,743.87c-.62,3.55-4.78,6.19-11.27,7.74-7.73-5.06-20.36-9.65-35.01-12.21-14.65-2.56-28.09-2.53-37.08-.39-5.58-3.65-8.61-7.54-7.99-11.09,1.48-8.47,23.13-11.76,48.35-7.35,25.23,4.41,44.48,14.84,43,23.3Z"/>
      <path class="st17" d="M743.3,751.61c-8.99,2.14-22.43,2.17-37.08-.39-14.65-2.56-27.28-7.15-35.01-12.21,8.99-2.14,22.43-2.17,37.08.39,14.65,2.56,27.28,7.15,35.01,12.21Z"/>
      <path class="st19" d="M768.54,800.71l8.19,11.64c-6.43,11.06-18.39,18.1-31.45,18.1-2.1,0-4.23-.18-6.37-.56l-.38-.07-2.57-.45,2.17-12.75,2.77.52,1.19.23c1.3.21,2.59.32,3.86.32,10.36,0,19.66-6.87,22.59-16.98Z"/>
      <path class="st19" d="M781.45,798.19l-7.78-7.71c-.98-.97-2.27-1.47-3.58-1.47-.38,0-.76.04-1.13.13-1.76-8.12-7.76-15.01-16.18-17.57l-3.16-1.15-3.43-1.25,2.12-12.47,3.64,1.18,4.55,1.48c8.98,2.92,16.12,9.03,20.47,16.74,1.96,3.46,3.35,7.25,4.09,11.21.67,3.52.82,7.18.39,10.88Z"/>
    </g>
    <path class="st1" d="M858.01,813.47l-23.76,271.58h-146.88l111.29-188.73c5.58-9.45,5.97-21.1,1.04-30.91l-6.93-13.79c-2.33-4.63-3.78-9.66-4.28-14.82l-.29-3.04c-.37-3.86-1.74-7.56-3.97-10.73l-7.5-10.68-8.19-11.64-2.6-3.71c-1.63-2.32-1.04-5.53,1.32-7.12.53-.36,1.11-.6,1.7-.74.37-.09.75-.13,1.13-.13,1.31,0,2.6.5,3.58,1.47l7.78,7.71,22.47,22.27c3.5,3.46,9.08,3.63,12.76.37l1.23-1.08c1.64-1.44,2-3.86.86-5.72l-13.5-21.98-24.21-4.74c-.74-3.96-2.13-7.75-4.09-11.21l32.8,2.61-21.63-29.64c-1.94-2.66-1.24-6.4,1.52-8.19.96-.62,2.04-.92,3.11-.92,1.58,0,3.13.64,4.25,1.88l32.01,35.27-17.55-31.71c-1.19-2.16-.63-4.86,1.31-6.37.91-.71,1.99-1.05,3.07-1.05,1.43,0,2.86.62,3.84,1.8l21.93,26.35,16.38,47.34Z"/>
    <path class="st3" d="M525.04,685.45c13.4-3.31,28.74-11.61,35.73-15.66,2.03-1.18,4.61-.02,5.09,2.28,1.65,7.86,2.52,23.72-14.93,29.96-17.45,6.24-25.27-5.35-28.17-11.84-.87-1.95.21-4.23,2.28-4.75Z"/>
    <circle class="st14" cx="516.29" cy="653.24" r="5.2"/>
    <circle class="st14" cx="551.58" cy="639.17" r="5.2"/>
  </g>
  <g id="Layer_3">
    <path class="st12" d="M1347.04,875.43v213.19h-572.46l170.29-289.4c10.94-18.58,28.47-32.37,49.11-38.63l230.33-69.78c23.27-7.06,48.44-3.91,69.26,8.66,11.43,6.9,20.94,16.26,27.95,27.22,7.02,10.95,11.54,23.5,13.02,36.77l12.5,111.97Z"/>
    <path class="st10" d="M978.1,671.96"/>
    <path class="st2" d="M977.33,614.35l62.43,154.31c17.97,44.41,69.07,65.19,112.94,45.94h0c41.95-18.42,61.75-66.77,44.76-109.32l-91.98-230.34c-3.55-9.18-13.88-13.75-23.06-10.19-4.59,1.78-8.03,5.25-9.87,9.42-1.84,4.18-2.1,9.05-.32,13.64l1.52,3.92c2.72,7.02-.77,14.91-7.79,17.62l-50.95,19.72c-33.95,13.14-50.81,51.32-37.67,85.27Z"/>
    <line class="st9" x1="1017.34" y1="638.21" x2="1017.34" y2="643.63"/>
    <line class="st9" x1="1050.82" y1="632.8" x2="1050.82" y2="638.21"/>
    <path class="st7" d="M1049.95,686.18c8.55-2.27,10.46-5.58,10.29-12.21"/>
    <path class="st4" d="M966.07,1005.76l-88.4,23.39c-26.07,6.9-42.02,33.17-36.12,59.48h0s139.17,0,139.17,0l-14.65-82.87Z"/>
    <polyline class="st8" points="1186.85 956.58 966.07 1005.76 980.72 1088.62"/>
  </g>
  <g id="Layer_4">
    <path class="st10" d="M166.69,546.55"/>
    <path class="st14" d="M391.72,1084.61H2.96l53.77-176.59c11-36.13,44.33-60.82,82.09-60.82h133.98c35.14,0,65.77,23.94,74.26,58.04l44.65,179.36Z"/>
    <path class="st5" d="M276.56,747.44c0,45.75-37.08,82.83-82.83,82.83-29.07,0-54.65-14.98-69.42-37.64h0c-1.07-1.64-2.07-3.3-3.01-5-6.62-11.9-10.39-25.61-10.39-40.19,0-33.38,19.74-62.14,48.19-75.25,10.53-4.86,22.27-7.57,34.64-7.57,20.04,0,38.42,7.12,52.75,18.97,18.38,15.19,30.08,38.16,30.08,63.86Z"/>
    <path class="st14" d="M201.28,736.38v1.17s-1.17,0-1.17,0c-1.3,0-2.35,1.05-2.35,2.35h0c0,1.3,1.05,2.35,2.35,2.35h1.17s4.7,0,4.7,0v-4.7s0-1.17,0-1.17c0-1.3-1.05-2.35-2.35-2.35h0c-1.3,0-2.35,1.05-2.35,2.35Z"/>
    <path class="st14" d="M240.28,705.29v1.17s-1.17,0-1.17,0c-1.3,0-2.35,1.05-2.35,2.35h0c0,1.3,1.05,2.35,2.35,2.35h1.17s4.7,0,4.7,0v-4.7s0-1.17,0-1.17c0-1.3-1.05-2.35-2.35-2.35h0c-1.3,0-2.35,1.05-2.35,2.35Z"/>
    <path class="st9" d="M215.9,713.82l15.3,6.94c2.28,1.04,2.74,4.08.86,5.74l-6.07,5.34"/>
    <path class="st9" d="M220.2,746.36c4.03,7.26,15.87,5.38,21.51,1.08"/>
    <path class="st14" d="M124.31,792.62h0s-3.01-5-3.01-5c-6.62-11.9-10.39-25.61-10.39-40.19,0-33.38,19.74-62.14,48.19-75.25,9.21,41.09,19.12,79.84-34.78,120.43Z"/>
    <path class="st14" d="M246.47,683.58s-38.37,10.88-87.39-11.39c10.53-4.86,22.27-7.57,34.64-7.57,20.04,0,38.42,7.12,52.75,18.97Z"/>
    <line class="st6" x1="221.84" y1="847.21" x2="221.84" y2="1013.56"/>
    <circle class="st3" cx="202.46" cy="881.5" r="5.3"/>
    <circle class="st3" cx="202.46" cy="916.56" r="5.3"/>
    <circle class="st3" cx="202.46" cy="951.61" r="5.3"/>
  </g>
  <g id="Layer_6" class="st15">
    <g>
      <rect class="st4" x="135" width="1080" height="1080"/>
      <rect class="st10" x="215" y="599.65" width="920" height="306.34" rx="153.17" ry="153.17"/>
      <path class="st10" d="M535.82,607.57c-7.53,0-5.05,36.06-5.05,36.06l-93.82,6.69v-21.37l98.88-21.37Z"/>
      <path class="st10" d="M403.26,631.53h192.33c68.67,0,126.35,51.67,133.87,119.93l17.03,154.53h-463.32l-13.78-125.03c-8.79-79.74,53.65-149.43,133.87-149.43Z"/>
      <path class="st10" d="M264.36,464.11c9.16,24.35,33.85,38.32,58.59,34.88.65-.15,1.31-.25,1.96-.31,6.92-.68,13.71,3.11,16.65,9.67.14.31.27.62.39.94s.23.64.33.97l45.07,119.84c6.06,16.12,24.04,24.27,40.15,18.2l144.36-54.3c16.12-6.06,24.27-24.04,18.2-40.15l-54.3-144.36c-6.06-16.12-24.04-24.27-40.15-18.2l-107.98,40.62c-.33.15-.67.29-1.02.42s-.7.25-1.04.35c-7.71,2.34-15.97-1.27-19.53-8.43h0c-.25-.51-.47-1.03-.67-1.56l-.06-.15c-11.69-26.15-41.89-39-69.07-28.78-28.23,10.62-42.51,42.12-31.89,70.35Z"/>
      <path class="st10" d="M822.8,634.41l-23.76,271.58h-146.88l111.29-188.73c5.58-9.46,5.97-21.1,1.04-30.91l-6.93-13.79c-2.33-4.64-3.78-9.66-4.28-14.83l-.29-3.03c-.37-3.86-1.74-7.56-3.97-10.74l-18.28-26.02c-1.63-2.32-1.04-5.54,1.31-7.12h0c2.01-1.35,4.69-1.1,6.41.6l30.26,29.98c3.49,3.46,9.07,3.62,12.76.37l1.23-1.08c1.64-1.44,2-3.86.86-5.72l-13.5-21.98-29.72-5.82c-2.48-.48-4.23-2.7-4.14-5.22h0c.11-2.91,2.62-5.15,5.53-4.92l32.83,2.61-21.63-29.64c-1.94-2.66-1.25-6.4,1.52-8.19h0c2.36-1.53,5.47-1.12,7.36.96l32.01,35.27-17.55-31.71c-1.19-2.16-.64-4.86,1.31-6.37h0c2.13-1.65,5.18-1.32,6.9.75l21.93,26.35,16.38,47.34Z"/>
      <path class="st10" d="M726.27,583.64c-.09.53-.26,1.04-.51,1.53l.56-3.01c.05.5.03.99-.05,1.48Z"/>
      <path class="st10" d="M729.56,564.81l-3.24,17.35-.56,3.01-13.64,73.12c-1.48,8.47-23.13,11.75-48.35,7.35-25.23-4.41-44.48-14.84-43-23.31l17.44-93.47c-.62,3.55,2.41,7.44,7.99,11.09,7.73,5.06,20.36,9.65,35.01,12.21,14.65,2.56,28.09,2.53,37.08.39,6.49-1.55,10.65-4.19,11.27-7.74Z"/>
      <path class="st10" d="M729.56,564.81c-.62,3.55-4.78,6.19-11.27,7.74-7.73-5.06-20.36-9.65-35.01-12.21-14.65-2.56-28.09-2.53-37.08-.39-5.58-3.65-8.61-7.54-7.99-11.09,1.48-8.47,23.13-11.76,48.35-7.35,25.23,4.41,44.48,14.84,43,23.3Z"/>
      <path class="st10" d="M718.29,572.55c-8.99,2.14-22.43,2.17-37.08-.39-14.65-2.56-27.28-7.15-35.01-12.21,8.99-2.14,22.43-2.17,37.08.39,14.65,2.56,27.28,7.15,35.01,12.21Z"/>
      <path class="st10" d="M755.97,622.1c-3.46,17.28-18.65,29.29-35.7,29.29-2.1,0-4.23-.18-6.37-.56l-2.95-.52,2.17-12.75,3.96.75c1.3.21,2.59.32,3.86.32,10.92,0,20.66-7.63,23.02-18.65,2.56-11.97-4.47-23.91-16.19-27.47l-6.59-2.4,2.12-12.47,8.19,2.66c17.58,5.71,28.1,23.67,24.48,41.8Z"/>
      <rect class="st10" x="215" y="246.58" width="920" height="306.34" rx="153.17" ry="153.17"/>
      <path class="st10" d="M694.64,552.92l-43.36-132.93c-31.36-96.15,40.3-194.89,141.43-194.89h165.38c63.24,0,113.36,53.36,109.41,116.47l-13.23,211.36h-359.64Z"/>
      <rect class="st10" x="761.76" y="42.67" width="186.62" height="186.62" rx="33.2" ry="33.2" transform="translate(154.29 644.46) rotate(-45)"/>
      <path class="st10" d="M808.04,552.92l-94.88-280.56c-10.8-31.94-37.77-55.73-70.81-62.46l-22.6-4.61-2.88-16.7c-.42-2.41-2.51-4.18-4.96-4.18h0c-3.08,0-5.43,2.74-4.97,5.78l5.25,34.9,3.24,8.28-18-15.48-12.08-27.01c-.96-2.16-3.17-3.49-5.53-3.34h0c-3.79.24-6.28,4.06-4.96,7.62l11.05,29.94-7.56-2.52-31.38-22.51c-2.49-1.79-5.88-1.61-8.17.43h0c-3.03,2.7-2.91,7.48.26,10.01l45.06,36.07,78.84,31.8,24.48,183.24-28.77-18.97,35.97,110.27h113.4Z"/>
      <path class="st10" d="M1061.62,435.68c-35.42-1.07-64.58,15.13-64.58,15.13v101.36l57.24.75,7.34-117.24Z"/>
      <path class="st10" d="M886.88,335.25l70.2-9.72,6.46,47.82c2.43,17.97-9.69,34.67-27.52,37.94h0c-18.27,3.35-35.83-8.6-39.43-26.82l-9.72-49.22Z"/>
      <path class="st10" d="M625.88,220.05c15.83,7.75,11.89,10.81,10.8,11.52s-7.31,2.7-10.8-11.52Z"/>
      <path class="st10" d="M918.31,751.97l230.33-69.79c23.27-7.05,48.44-3.9,69.26,8.66h0c22.86,13.8,38.01,37.45,40.97,63.99l36.3,325.16h-596.26l170.29-289.4c10.94-18.59,28.47-32.38,49.11-38.63Z"/>
      <path class="st10" d="M902.43,663.34"/>
      <path class="st10" d="M901.66,605.72l62.43,154.31c17.97,44.41,69.07,65.19,112.94,45.94h0c41.95-18.42,61.75-66.77,44.76-109.32l-91.98-230.34c-3.55-9.18-13.88-13.75-23.06-10.19-4.59,1.78-8.03,5.25-9.87,9.42-1.84,4.18-2.1,9.05-.32,13.64l1.52,3.92c2.72,7.02-.77,14.91-7.79,17.62l-50.95,19.72c-33.95,13.14-50.81,51.32-37.67,85.27Z"/>
      <line class="st10" x1="941.67" y1="629.59" x2="941.67" y2="635"/>
      <line class="st10" x1="975.15" y1="624.17" x2="975.15" y2="629.59"/>
      <path class="st10" d="M974.28,677.56c8.55-2.27,10.46-5.58,10.29-12.21"/>
      <path class="st10" d="M890.4,997.13l-88.4,23.39c-26.07,6.9-42.02,33.17-36.12,59.48h0s139.17,0,139.17,0l-14.65-82.87Z"/>
      <polyline class="st10" points="1111.18 947.95 890.4 997.13 905.05 1080"/>
      <g>
        <path class="st10" d="M378.73,541.94"/>
        <path class="st10" d="M603.76,1080H215l53.77-176.59c11-36.13,44.33-60.82,82.09-60.82h133.98c35.14,0,65.77,23.94,74.26,58.04l44.65,179.36Z"/>
        <path class="st10" d="M488.6,742.83c0,45.75-37.08,82.83-82.83,82.83-29.07,0-54.65-14.98-69.42-37.64h0c-1.07-1.64-2.07-3.3-3.01-5-6.62-11.9-10.39-25.61-10.39-40.19,0-33.38,19.74-62.14,48.19-75.25,10.53-4.86,22.27-7.57,34.64-7.57,20.04,0,38.42,7.12,52.75,18.97,18.38,15.19,30.08,38.16,30.08,63.86Z"/>
        <path class="st10" d="M413.32,731.77v1.17s-1.17,0-1.17,0c-1.3,0-2.35,1.05-2.35,2.35h0c0,1.3,1.05,2.35,2.35,2.35h1.17s4.7,0,4.7,0v-4.7s0-1.17,0-1.17c0-1.3-1.05-2.35-2.35-2.35h0c-1.3,0-2.35,1.05-2.35,2.35Z"/>
        <path class="st10" d="M452.32,700.68v1.17s-1.17,0-1.17,0c-1.3,0-2.35,1.05-2.35,2.35h0c0,1.3,1.05,2.35,2.35,2.35h1.17s4.7,0,4.7,0v-4.7s0-1.17,0-1.17c0-1.3-1.05-2.35-2.35-2.35h0c-1.3,0-2.35,1.05-2.35,2.35Z"/>
        <path class="st10" d="M427.94,709.21l15.3,6.94c2.28,1.04,2.74,4.08.86,5.74l-6.07,5.34"/>
        <path class="st10" d="M432.24,741.75c4.03,7.26,15.87,5.38,21.51,1.08"/>
        <path class="st10" d="M336.35,788.01h0s-3.01-5-3.01-5c-6.62-11.9-10.39-25.61-10.39-40.19,0-33.38,19.74-62.14,48.19-75.25,9.21,41.09,19.12,79.84-34.78,120.43Z"/>
        <path class="st10" d="M458.51,678.97s-38.37,10.88-87.39-11.39c10.53-4.86,22.27-7.57,34.64-7.57,20.04,0,38.42,7.12,52.75,18.97Z"/>
        <line class="st10" x1="433.88" y1="842.6" x2="433.88" y2="1008.95"/>
        <circle class="st10" cx="414.5" cy="876.89" r="5.3"/>
        <circle class="st10" cx="414.5" cy="911.94" r="5.3"/>
        <circle class="st10" cx="414.5" cy="947" r="5.3"/>
      </g>
    </g>
  </g>
</svg>