<svg width="683" height="683" viewBox="0 0 683 683" fill="none" xmlns="http://www.w3.org/2000/svg">
<g clip-path="url(#clip0_229_381)">
<path d="M632.407 252.805C632.407 279.549 621.568 303.771 604.038 321.301C597.568 327.77 590.188 333.329 582.106 337.769C570.95 343.89 558.454 347.887 545.173 349.196H545.16C541.998 349.513 538.786 349.671 535.542 349.671H147.458C93.963 349.671 50.5925 306.3 50.5925 252.805C50.5925 226.054 61.432 201.839 78.9623 184.309C96.4927 166.778 120.714 155.939 147.458 155.939H535.542C547.153 155.939 558.289 157.982 568.61 161.732C605.827 175.246 632.407 210.921 632.407 252.805Z" fill="white"/>
<path d="M589.726 216.005L582.106 337.769C570.95 343.891 558.454 347.887 545.173 349.196H545.16C541.998 349.513 538.786 349.671 535.541 349.671H353.92L326.499 265.605C312.289 222.032 331.533 177.618 367.119 155.939C381.19 147.364 397.822 142.349 415.947 142.349H520.534C539.266 142.349 556.177 149.754 568.61 161.732C582.719 175.31 591.054 194.788 589.726 216.005Z" fill="#3EEFAC"/>
<path d="M440.53 17.3923L386.77 71.1522C378.571 79.3516 378.571 92.6455 386.77 100.845L440.53 154.605C448.73 162.804 462.024 162.804 470.223 154.605L523.983 100.845C532.182 92.6455 532.182 79.3516 523.983 71.1522L470.223 17.3923C462.024 9.19286 448.73 9.19286 440.53 17.3923Z" fill="#0564A1"/>
<path d="M586.001 275.527L582.106 337.769C570.95 343.891 558.454 347.887 545.173 349.196H545.16V285.096C545.16 285.096 563.601 274.851 586.001 275.527Z" fill="#0564A1"/>
<path d="M475.494 212.015L519.889 205.868L523.975 236.109C525.511 247.474 517.847 258.035 506.571 260.103C495.017 262.221 483.912 254.664 481.635 243.142L475.488 212.015H475.494Z" fill="#FD5C50"/>
<path d="M365.633 172.242C358.803 152.043 341.747 136.998 320.852 132.742L306.559 129.827L304.738 119.266C304.473 117.742 303.151 116.622 301.601 116.622C299.654 116.622 298.167 118.355 298.458 120.278L301.778 142.349L303.827 147.585L292.444 137.795L284.805 120.714C284.198 119.348 282.8 118.507 281.307 118.602C278.911 118.753 277.336 121.169 278.171 123.421L285.159 142.355L280.378 140.761L260.533 126.526C258.958 125.394 256.814 125.508 255.366 126.798C253.45 128.505 253.526 131.528 255.531 133.128L284.027 155.939L333.886 176.05L349.367 291.932L331.173 279.935L353.92 349.671H425.635L365.633 172.242ZM317.266 146.447C316.577 146.896 312.643 148.154 310.436 139.161C320.447 144.062 317.955 145.998 317.266 146.447Z" fill="#0564A1"/>
<path d="M441.737 73.1948C442.61 73.1948 443.318 72.487 443.318 71.6138C443.318 70.7406 442.61 70.0328 441.737 70.0328C440.863 70.0328 440.156 70.7406 440.156 71.6138C440.156 72.487 440.863 73.1948 441.737 73.1948Z" fill="#231F20"/>
<path d="M462.821 73.1948C463.694 73.1948 464.402 72.487 464.402 71.6138C464.402 70.7406 463.694 70.0328 462.821 70.0328C461.948 70.0328 461.24 70.7406 461.24 71.6138C461.24 72.487 461.948 73.1948 462.821 73.1948Z" fill="#231F20"/>
<path d="M452.114 101.255C458.862 101.255 464.478 96.4042 465.654 89.9979C465.894 88.6888 464.876 87.4872 463.548 87.4872H440.674C439.346 87.4872 438.328 88.6951 438.568 89.9979C439.751 96.4042 445.36 101.255 452.108 101.255H452.114Z" stroke="#231F20" stroke-width="4" stroke-miterlimit="10" stroke-linecap="round"/>
<path d="M349.367 291.926L321.794 274.294V228.969L349.367 291.926Z" fill="#3EEFAC"/>
<path d="M535.542 379.223H147.458C93.9608 379.223 50.5925 422.591 50.5925 476.089C50.5925 529.586 93.9608 572.955 147.458 572.955H535.542C589.039 572.955 632.407 529.586 632.407 476.089C632.407 422.591 589.039 379.223 535.542 379.223Z" fill="white"/>
<path d="M253.481 384.232C248.719 384.232 250.288 407.036 250.288 407.036L190.955 411.267V397.753L253.488 384.238L253.481 384.232Z" fill="#F0574C"/>
<path d="M169.65 399.384H291.281C334.708 399.384 371.185 432.061 375.941 475.229L386.711 572.955H93.6975L84.9829 493.885C79.4241 443.457 118.912 399.384 169.643 399.384H169.65Z" fill="#59A5DA"/>
<path d="M81.8081 293.507C87.601 308.906 103.215 317.74 118.861 315.565C119.272 315.47 119.689 315.407 120.1 315.369C124.477 314.939 128.771 317.336 130.63 321.484C130.719 321.68 130.801 321.876 130.877 322.079C130.952 322.281 131.022 322.484 131.085 322.692L159.588 398.48C163.42 408.674 174.791 413.828 184.979 409.99L276.273 375.65C286.468 371.818 291.622 360.447 287.783 350.259L253.443 258.965C249.611 248.77 238.24 243.616 228.052 247.455L159.765 273.143C159.556 273.238 159.341 273.326 159.12 273.409C158.899 273.491 158.677 273.567 158.462 273.63C153.586 275.11 148.363 272.827 146.111 268.299C145.953 267.976 145.814 267.647 145.688 267.312L145.65 267.217C138.257 250.68 119.158 242.554 101.969 249.017C84.1164 255.733 75.0856 275.654 81.8018 293.507H81.8081Z" fill="#F0574C"/>
<path d="M386.306 384.662L382.821 383.979C381.253 383.675 380.146 382.271 380.203 380.678C380.267 378.926 381.708 377.56 383.429 377.56C383.517 377.56 383.612 377.566 383.7 377.572H383.719C384.959 379.761 385.838 382.157 386.306 384.662Z" fill="#F0574C"/>
<path d="M373.924 369.098C373.867 369.433 373.759 369.756 373.601 370.066L373.955 368.162C373.987 368.478 373.974 368.788 373.924 369.098Z" stroke="#231F20" stroke-miterlimit="10"/>
<path d="M369.554 357.19L367.505 368.162L367.15 370.066L358.524 416.307C357.588 421.664 343.897 423.738 327.947 420.956C311.992 418.167 299.818 411.571 300.754 406.214L311.783 347.103C311.391 349.348 313.307 351.808 316.836 354.117C321.725 357.317 329.712 360.219 338.977 361.838C348.241 363.457 356.741 363.438 362.426 362.085C366.531 361.105 369.161 359.435 369.554 357.19Z" fill="#E6E7E8"/>
<path d="M369.553 357.19C369.161 359.435 366.531 361.105 362.426 362.085C357.538 358.885 349.55 355.982 340.286 354.363C331.021 352.744 322.521 352.763 316.836 354.117C313.307 351.808 311.391 349.348 311.783 347.103C312.719 341.747 326.411 339.666 342.36 342.455C358.316 345.244 370.489 351.84 369.553 357.19Z" fill="#BCBEC0"/>
<path d="M362.426 362.085C356.741 363.438 348.241 363.457 338.977 361.838C329.712 360.219 321.724 357.317 316.836 354.117C322.521 352.763 331.021 352.744 340.286 354.363C349.55 355.982 357.538 358.885 362.426 362.085Z" fill="#F6700F"/>
<path d="M378.388 393.136L383.568 400.497C379.501 407.492 371.938 411.944 363.678 411.944C362.35 411.944 361.003 411.83 359.65 411.59L359.41 411.545L357.784 411.261L359.157 403.198L360.909 403.527L361.661 403.672C362.483 403.805 363.299 403.874 364.102 403.874C370.654 403.874 376.535 399.53 378.388 393.136Z" fill="#E6E7E8"/>
<path d="M386.553 391.542L381.632 386.667C381.013 386.053 380.197 385.737 379.368 385.737C379.128 385.737 378.888 385.762 378.654 385.819C377.541 380.684 373.746 376.327 368.421 374.708L366.423 373.98L364.254 373.19L365.595 365.304L367.897 366.05L370.774 366.986C376.453 368.833 380.968 372.697 383.719 377.573C384.959 379.761 385.838 382.157 386.306 384.662C386.73 386.888 386.825 389.203 386.553 391.542Z" fill="#E6E7E8"/>
<path d="M434.97 401.206L419.944 572.955H327.056L397.436 453.601C400.965 447.624 401.212 440.257 398.094 434.053L393.711 425.332C392.238 422.404 391.321 419.223 391.005 415.96L390.821 414.037C390.587 411.596 389.721 409.256 388.311 407.251L383.568 400.497L378.388 393.136L376.744 390.79C375.713 389.323 376.086 387.293 377.579 386.287C377.914 386.059 378.281 385.908 378.654 385.819C378.888 385.762 379.128 385.737 379.368 385.737C380.197 385.737 381.013 386.053 381.632 386.667L386.553 391.542L400.763 405.626C402.976 407.814 406.505 407.922 408.832 405.86L409.61 405.177C410.647 404.266 410.875 402.736 410.154 401.56L401.617 387.659L386.306 384.662C385.838 382.157 384.959 379.761 383.719 377.573L404.462 379.223L390.783 360.479C389.557 358.796 389.999 356.431 391.745 355.299C392.352 354.907 393.035 354.717 393.711 354.717C394.711 354.717 395.691 355.122 396.399 355.906L416.643 378.211L405.544 358.158C404.791 356.792 405.145 355.084 406.372 354.129C406.948 353.68 407.631 353.465 408.314 353.465C409.218 353.465 410.122 353.857 410.742 354.603L424.611 371.267L434.97 401.206Z" fill="#F0574C"/>
<path d="M683 548.177V683H320.972L428.665 499.981C435.583 488.231 446.669 479.51 459.722 475.551L605.385 431.422C620.101 426.957 636.019 428.949 649.185 436.899C656.414 441.262 662.428 447.182 666.861 454.113C671.301 461.038 674.159 468.974 675.095 477.366L683 548.177Z" fill="#B44139"/>
<path d="M449.193 383.062L488.674 480.649C500.038 508.734 532.354 521.875 560.098 509.701C586.627 498.052 599.149 467.476 588.404 440.567L530.236 294.898C527.991 289.092 521.458 286.202 515.652 288.454C512.75 289.579 510.574 291.774 509.41 294.411C508.247 297.054 508.082 300.134 509.208 303.037L510.169 305.516C511.89 309.956 509.682 314.945 505.243 316.659L473.022 329.13C451.551 337.44 440.889 361.585 449.199 383.055L449.193 383.062Z" fill="#E5A53E"/>
<path d="M474.495 398.157V401.579" stroke="#231F20" stroke-width="4" stroke-miterlimit="10" stroke-linecap="round"/>
<path d="M495.668 394.73V398.157" stroke="#231F20" stroke-width="4" stroke-miterlimit="10" stroke-linecap="round"/>
<path d="M495.118 428.494C500.525 427.058 501.733 424.965 501.626 420.772" stroke="#3E3E3E" stroke-width="4" stroke-miterlimit="10" stroke-linecap="round"/>
<path d="M442.072 630.592L386.167 645.384C369.68 649.748 359.593 666.361 363.325 683H451.337L442.072 630.592Z" fill="#F6BA3D"/>
<path d="M581.695 599.491L442.072 630.592L451.337 683" stroke="#231F20" stroke-width="2" stroke-miterlimit="10"/>
<path d="M296.447 683H50.5925L84.5971 571.323C91.5536 548.474 112.632 532.86 136.511 532.86H221.241C243.464 532.86 262.835 548 268.204 569.565L296.441 682.994L296.447 683Z" fill="#231F20"/>
<path d="M223.619 469.771C223.619 498.704 200.169 522.153 171.237 522.153C152.853 522.153 136.676 512.68 127.335 498.35C126.658 497.313 126.026 496.263 125.432 495.188C121.245 487.662 118.861 478.992 118.861 469.771C118.861 448.661 131.345 430.473 149.337 422.183C155.996 419.109 163.42 417.395 171.243 417.395C183.917 417.395 195.54 421.898 204.603 429.392C216.226 438.998 223.625 453.525 223.625 469.778L223.619 469.771Z" fill="#2AA375"/>
<path d="M176.011 462.777V463.517H175.272C174.449 463.517 173.785 464.181 173.785 465.003C173.785 465.825 174.449 466.489 175.272 466.489H176.011H178.984V463.517V462.777C178.984 461.955 178.32 461.291 177.498 461.291C176.676 461.291 176.011 461.955 176.011 462.777Z" fill="#231F20"/>
<path d="M200.676 443.115V443.855H199.936C199.113 443.855 198.449 444.519 198.449 445.341C198.449 446.163 199.113 446.827 199.936 446.827H200.676H203.648V443.855V443.115C203.648 442.293 202.984 441.629 202.162 441.629C201.34 441.629 200.676 442.293 200.676 443.115Z" fill="#231F20"/>
<path d="M185.257 448.51L194.933 452.899C196.375 453.556 196.666 455.479 195.477 456.529L191.638 459.906" stroke="#231F20" stroke-width="4" stroke-miterlimit="10" stroke-linecap="round"/>
<path d="M187.977 469.088C190.525 473.679 198.013 472.491 201.58 469.771" stroke="#231F20" stroke-width="4" stroke-miterlimit="10" stroke-linecap="round"/>
<path d="M127.335 498.343L125.432 495.181C121.245 487.656 118.861 478.985 118.861 469.765C118.861 448.655 131.345 430.467 149.337 422.176C155.161 448.162 161.428 472.668 127.341 498.337L127.335 498.343Z" fill="#231F20"/>
<path d="M204.59 429.386C204.59 429.386 180.325 436.266 149.324 422.183C155.983 419.109 163.408 417.395 171.231 417.395C183.904 417.395 195.528 421.898 204.59 429.392V429.386Z" fill="#231F20"/>
<path d="M189.014 532.866V638.067" stroke="white" stroke-miterlimit="10"/>
<path d="M176.758 557.903C178.609 557.903 180.11 556.403 180.11 554.552C180.11 552.701 178.609 551.2 176.758 551.2C174.907 551.2 173.406 552.701 173.406 554.552C173.406 556.403 174.907 557.903 176.758 557.903Z" fill="white"/>
<path d="M176.758 580.069C178.609 580.069 180.11 578.569 180.11 576.718C180.11 574.866 178.609 573.366 176.758 573.366C174.907 573.366 173.406 574.866 173.406 576.718C173.406 578.569 174.907 580.069 176.758 580.069Z" fill="white"/>
<path d="M176.758 602.242C178.609 602.242 180.11 600.741 180.11 598.89C180.11 597.039 178.609 595.538 176.758 595.538C174.907 595.538 173.406 597.039 173.406 598.89C173.406 600.741 174.907 602.242 176.758 602.242Z" fill="white"/>
<path d="M224.397 320.245C232.871 318.152 242.572 312.903 246.993 310.341C248.277 309.595 249.908 310.329 250.212 311.783C251.255 316.754 251.806 326.784 240.77 330.73C229.735 334.676 224.789 327.347 222.955 323.242C222.405 322.009 223.088 320.567 224.397 320.238V320.245Z" fill="white"/>
<path d="M218.863 303.157C220.68 303.157 222.152 301.685 222.152 299.869C222.152 298.052 220.68 296.58 218.863 296.58C217.047 296.58 215.575 298.052 215.575 299.869C215.575 301.685 217.047 303.157 218.863 303.157Z" fill="#231F20"/>
<path d="M241.181 294.265C242.997 294.265 244.47 292.793 244.47 290.977C244.47 289.161 242.997 287.688 241.181 287.688C239.365 287.688 237.893 289.161 237.893 290.977C237.893 292.793 239.365 294.265 241.181 294.265Z" fill="#231F20"/>
</g>
<defs>
<clipPath id="clip0_229_381">
<rect width="683" height="683" fill="white"/>
</clipPath>
</defs>
</svg>
