<?xml version="1.0" encoding="UTF-8"?>
<svg id="Layer_1" xmlns="http://www.w3.org/2000/svg" version="1.1" xmlns:xlink="http://www.w3.org/1999/xlink" viewBox="0 0 958 280">
  <!-- Generator: Adobe Illustrator 29.6.0, SVG Export Plug-In . SVG Version: 2.1.1 Build 207)  -->
  <defs>
    <style>
      .st0 {
        fill: #f98575;
      }

      .st1 {
        fill: #f9ad62;
      }

      .st2 {
        fill: #b75542;
      }

      .st3 {
        fill: #eddbd9;
      }

      .st4 {
        fill: #f48462;
      }

      .st5 {
        fill: #fff;
      }

      .st6 {
        fill: #e8821c;
      }

      .st7 {
        fill: #a9c97b;
      }

      .st8 {
        fill: none;
      }

      .st9 {
        fill: #bc9f9b;
      }

      .st10 {
        fill: #e0c8c3;
      }

      .st11 {
        fill: #2ca474;
      }

      .st12 {
        fill: #c2db8d;
      }

      .st13 {
        fill: #f2513b;
      }

      .st14 {
        fill: #f28c2f;
      }

      .st15 {
        fill: #b56a4d;
      }

      .st16 {
        fill: #9b543e;
      }

      .st17 {
        fill: #f9bb40;
      }

      .st18 {
        fill: #9bb26f;
      }

      .st19 {
        fill: #933f37;
      }

      .st20 {
        fill: #db700f;
      }

      .st21 {
        fill: #ea7d24;
      }

      .st22 {
        clip-path: url(#clippath);
      }

      .st23 {
        fill: #ff9e88;
      }

      .st24 {
        fill: #ad4d40;
      }
    </style>
    <clipPath id="clippath">
      <rect class="st8" x="353" width="565" height="280"/>
    </clipPath>
  </defs>
  <g class="st22">
    <path class="st5" d="M75,130h808c41.42,0,75,33.58,75,75h0c0,41.42-33.58,75-75,75H75C33.58,280,0,246.42,0,205h0c0-41.42,33.58-75,75-75Z"/>
    <g>
      <path class="st12" d="M0,183.8s34.68-23.73,68.53-23.36,51.5,17.82,51.5,17.82c0,0,19.17-23.56,52.24-26.61,33.07-3.05,53.23,22.72,53.23,22.72,0,0,8.44-8.96,18.13-9.51,9.69-.55,17.11,8.66,17.11,8.66,0,0,21.85-16.69,43.86-15.57,22.01,1.12,28.99,16.42,28.99,16.42,0,0,15.47-20.34,48.26-19.18,32.78,1.16,52.17,19.78,52.17,19.78,0,0,20.94-12.8,42.66-11.25,21.71,1.55,31.8,12.8,31.8,12.8,0,0,11.63-12.41,33.35-12.8,21.72-.39,30.25,12.41,30.25,12.41,0,0,18.61-32.96,57.39-33.35,38.78-.39,55.84,32.19,55.84,32.19,0,0,16.67-17.02,38-14.52s29.86,13.92,29.86,13.92c0,0,21.72-29.33,53.13-26.78,31.41,2.56,46.53,26.78,46.53,26.78,0,0,11.25-17.16,32.96-16.42,21.72.74,29.86,16.42,29.86,16.42,0,0,9.69-12.28,24.43-11.08s17.92,20.52,17.92,20.52l-143.56,24.89H23.76L0,183.8Z"/>
      <rect class="st18" y="183.8" width="958" height="96.53"/>
      <g>
        <path class="st12" d="M808.79,131.78s8.57-11.4,3.77-22.47-12.6-10.6-12.6-10.6c.34-10.76-.14-22.02-9.37-25.17-16.42-5.6-19.12,17.21-19.12,17.21l-23.29,63.97s4.17,20.7,18.97,29.4c14.8,8.71,40.17,8.47,48.7-9.83,5.6-12.02-.74-29.85-7.06-42.52h0Z"/>
        <path class="st7" d="M783.61,150c-1.57-11.48-6.07-13.72-7.96-20.06s6.16-9.18,6.39-24.33c.23-15.15-9.45-20.62-14.89-27.31-5.44-6.69,2.07-37.31-15.97-37.18-14.65.11-12.33,22.5-12.56,28.4-.22,5.9-7.87,12.52-7.87,12.52,0,0-18.58,7.48-18.17,21.9.41,14.42,3.08,22.19,0,26.45-3.08,4.26-10.12,18.28-1.79,31.45,9.76,15.42,36.65,3.68,46.39,6.38,17.88,4.94,28.01-6.74,26.43-18.22h0Z"/>
        <path class="st11" d="M752.44,195.2c-.19,0-.34-.15-.34-.34l.03-113.22c0-.19.15-.34.34-.34s.34.15.34.34l-.03,113.22c0,.19-.15.34-.34.34Z"/>
        <path class="st11" d="M785.85,203.64c-.19,0-.34-.15-.34-.34l.02-87.7c0-.19.15-.34.34-.34s.34.15.34.34l-.02,87.7c0,.19-.15.34-.34.34Z"/>
        <path class="st11" d="M752.47,146.29c-.11,0-.21-.05-.28-.14l-19.45-27.84c-.11-.15-.07-.36.08-.47.15-.1.36-.07.47.08l19.45,27.84c.11.15.07.36-.08.47-.06.04-.13.06-.19.06h0Z"/>
        <path class="st11" d="M752.47,109.65c-.06,0-.12-.01-.17-.05-.16-.09-.22-.3-.12-.46l6.17-10.6c.09-.16.3-.22.46-.12.16.09.22.3.12.46l-6.17,10.6c-.06.11-.18.17-.29.17h0Z"/>
        <path class="st11" d="M785.87,174.11s-.11,0-.16-.04c-.16-.09-.22-.29-.14-.46l12.89-23.77c.09-.16.29-.22.46-.14.16.09.22.29.14.46l-12.89,23.77c-.06.11-.18.18-.3.18h0Z"/>
        <g>
          <path class="st12" d="M700.5,73.45c11.76,0,17.32,18.1,18.45,25.42.95,6.17,15.3,2.49,17.62,17.41,1.71,10.96-9.26,19.96-3.8,24.23,5.45,4.28,17.44,12.33,6.46,30.08s-30.1,3.44-36.41,4.34c-6.3.9-6.44,8.02-15.58,8.91s-20.48-9.05-16.34-21.93c4.14-12.88,6.89-13.52,7.38-17.68.49-4.16-8.4-11.55-6.17-22.59,2.23-11.05,8.63-9.26,11.34-11.4,2.72-2.13-1.4-36.8,17.05-36.79h0Z"/>
          <path class="st11" d="M702.53,204c-.19,0-.34-.16-.34-.34l1.12-75.55c0-.18.15-.33.34-.33s.34.16.34.34l-1.12,75.55c0,.18-.15.33-.34.33Z"/>
          <path class="st11" d="M703.15,162.56c-.11,0-.21-.05-.28-.15l-17.19-25.33c-.1-.15-.06-.36.09-.47.15-.1.36-.06.47.09l17.19,25.33c.1.15.06.36-.09.47-.06.04-.12.06-.19.06h0Z"/>
          <path class="st11" d="M703.09,172.55c-.09,0-.17-.03-.24-.1-.13-.13-.13-.35,0-.48l23.36-23.11c.13-.13.35-.13.48,0s.13.35,0,.48l-23.36,23.11c-.07.06-.15.1-.24.1Z"/>
        </g>
      </g>
      <path class="st12" d="M253.91,204.16c-6.12,0-11.67-4.15-12.88-10.15-.36-1.78-.3-3.62.49-5.37,3.15-6.97,9.9-7.19,9.9-7.19,0,0-4.27-11.71,7.65-16.21,11.92-4.5,17.55,5.07,17.55,5.07,0,0-6.75-24.34,13.95-29.44s23.85,23.37,23.85,23.37c0,0,9.45-3.95,16.2,3.93,6.75,7.87,2.02,17.84,2.02,17.84,0,0,8.55-1.89,9.67,8.02,1.12,9.91-11.25,10.14-11.25,10.14h-77.15Z"/>
      <rect class="st3" y="203.31" width="958" height="17.48"/>
      <path class="st18" d="M882.24,223.35c6.12,0,11.67-4.15,12.88-10.15.36-1.78.3-3.62-.49-5.37-3.15-6.97-9.9-7.19-9.9-7.19,0,0,4.27-11.71-7.65-16.21-11.92-4.5-17.55,5.07-17.55,5.07,0,0,6.75-24.34-13.95-29.44s-23.85,23.37-23.85,23.37c0,0-9.45-3.95-16.2,3.93-6.75,7.87-2.02,17.84-2.02,17.84,0,0-8.55-1.89-9.67,8.02s11.25,10.14,11.25,10.14h77.15Z"/>
      <path class="st18" d="M50.56,226.81c-6.12,0-11.67-4.15-12.88-10.15-.36-1.78-.3-3.62.49-5.37,3.15-6.97,9.9-7.19,9.9-7.19,0,0-4.27-11.71,7.65-16.21,11.92-4.5,17.55,5.07,17.55,5.07,0,0-6.75-24.34,13.95-29.44s23.85,23.37,23.85,23.37c0,0,9.45-3.95,16.2,3.93,6.75,7.87,2.02,17.84,2.02,17.84,0,0,8.55-1.89,9.67,8.02s-11.25,10.14-11.25,10.14H50.56Z"/>
      <path class="st12" d="M612.6,203.31c-4.91,0-9.36-3.33-10.33-8.14-.29-1.43-.24-2.91.39-4.3,2.53-5.59,7.94-5.76,7.94-5.76,0,0-3.43-9.39,6.13-12.99,9.56-3.61,14.07,4.07,14.07,4.07,0,0-5.41-19.52,11.18-23.61,16.59-4.09,19.12,18.74,19.12,18.74,0,0,7.58-3.16,12.99,3.15s1.62,14.3,1.62,14.3c0,0,6.85-1.52,7.76,6.43.9,7.95-9.02,8.13-9.02,8.13h-61.85v-.02Z"/>
      <path class="st10" d="M366,214.84c0,2.11-25.86,3.81-57.75,3.81s-57.75-1.71-57.75-3.81,25.86-3.81,57.75-3.81,57.75,1.71,57.75,3.81Z"/>
      <ellipse class="st10" cx="656.29" cy="214.86" rx="61.76" ry="2.68"/>
      <path class="st15" d="M150.96,184.16h5v19.43c0,.99-.81,1.8-1.8,1.8h-1.4c-.99,0-1.8-.81-1.8-1.8v-19.43h0Z"/>
      <path class="st15" d="M244.79,184.7h5v19.43c0,.99-.81,1.8-1.8,1.8h-1.4c-.99,0-1.8-.81-1.8-1.8v-19.43h0Z"/>
      <rect class="st9" x="151.93" y="142.43" width="3.06" height="38.2"/>
      <rect class="st9" x="245.77" y="142.43" width="3.06" height="38.2"/>
      <rect class="st10" x="141.97" y="138.49" width="116.81" height="7.88" rx="2.84" ry="2.84"/>
      <rect class="st10" x="141.97" y="149.1" width="116.81" height="7.88" rx="2.84" ry="2.84"/>
      <rect class="st10" x="141.97" y="159.72" width="116.81" height="7.88" rx="2.84" ry="2.84"/>
      <rect class="st10" x="141.97" y="178.05" width="116.81" height="7.88" rx="2.84" ry="2.84"/>
      <path class="st15" d="M521.28,185.73h5v19.43c0,.99-.81,1.8-1.8,1.8h-1.4c-.99,0-1.8-.81-1.8-1.8v-19.43h0Z"/>
      <path class="st15" d="M615.12,186.27h5v19.43c0,.99-.81,1.8-1.8,1.8h-1.4c-.99,0-1.8-.81-1.8-1.8v-19.43h0Z"/>
      <rect class="st9" x="522.25" y="143.99" width="3.06" height="38.2"/>
      <rect class="st9" x="616.09" y="143.99" width="3.06" height="38.2"/>
      <rect class="st10" x="512.3" y="140.05" width="116.81" height="7.88" rx="2.84" ry="2.84"/>
      <rect class="st10" x="512.3" y="150.66" width="116.81" height="7.88" rx="2.84" ry="2.84"/>
      <rect class="st10" x="512.3" y="161.28" width="116.81" height="7.88" rx="2.84" ry="2.84"/>
      <rect class="st10" x="512.3" y="179.61" width="116.81" height="7.88" rx="2.84" ry="2.84"/>
      <g>
        <path class="st0" d="M260.11,156.36s-15.57,3.51-23.72,3.51.52,12.39.52,12.39c0,0,28.38,3.97,28.44-3.61s-5.24-12.29-5.24-12.29Z"/>
        <path class="st0" d="M288.45,171.89s10.18,16.37,12.9,24.07c2.72,7.69,11.39-4.9,11.39-4.9,0,0-8.3-31.16-16.12-32.09-7.53-.89-8.17,12.92-8.17,12.92Z"/>
        <polygon class="st1" points="236.91 172.25 230.61 172.43 229.47 159.47 236.39 159.87 236.91 172.25"/>
        <path class="st15" d="M223.52,157.7l-4.19-.22-3.05-.16-5.49,34.72s1.35.26,3.05.13c2-.16,4.47-.88,5.77-3.24,4.47-8.11,10.01-14.55,11.22-15.44.55-.4.89-1.08.89-1.8l-.25-11.05c0-1-.62-1.84-1.5-2.01l-2.86-.56c-1.19-.23-2.39-.36-3.6-.37h.01Z"/>
        <path class="st11" d="M219.33,157.48l-3.05-.16-.02.14-2.26-.36-.64,4.04,2.26.36-.57,3.62-2.26-.36-.64,4.08,2.26.36-.53,3.33-2.26-.36-.65,4.08,2.26.36-.56,3.55-2.26-.36-.65,4.08,2.26.36-.59,3.76-2.26-.36-.64,4.03,2.26.36s1.35.26,3.05.13l5.48-34.7v.02Z"/>
        <path class="st17" d="M224.39,181.32c-.09,0-.17-.06-.21-.15l-1.51-4.33c-.04-.11.02-.24.13-.28.12-.04.24.02.28.13l1.51,4.33c.04.11-.02.24-.13.28-.02,0-.05,0-.07,0h0Z"/>
        <path class="st17" d="M226.44,178.65c-.09,0-.17-.06-.21-.15l-1.51-4.33c-.04-.11.02-.24.13-.28s.24.02.28.13l1.51,4.33c.04.11-.02.24-.13.28-.02,0-.05,0-.07,0h0Z"/>
        <path class="st17" d="M229.49,183.86c-.18,0-.37-.03-.55-.1-1.79-.68-2.69-4.58-2.73-4.75-.03-.12.05-.23.16-.26.12-.02.23.05.26.17,0,.04.88,3.84,2.46,4.43.4.15.82.07,1.27-.26.42-.3.61-.64.58-1.03-.11-1.38-2.95-3.13-4.04-3.68-.03,0-.05-.03-.07-.06-.04-.07-.05-.11-.05-.16,0-.08.05-.13.11-.17.12-.07,2.96-1.72,4.49-1.28.36.1.63.31.79.62.19.36.11.62,0,.77-.49.7-2.69.59-4.11.44,1.23.75,3.2,2.15,3.3,3.49.04.54-.21,1.02-.75,1.42-.38.28-.76.42-1.13.42h0ZM227.7,178.06c1.7.2,3.79.25,4.12-.21.02-.03.08-.11-.03-.31s-.28-.33-.53-.4c-.96-.28-2.67.48-3.56.93h0Z"/>
        <polygon class="st1" points="312.74 191.06 315.15 196.89 303.44 202.56 301.35 195.96 312.74 191.06"/>
        <path class="st2" d="M251.71,153.71l4.76,23.69c4.37-.45,8.65-1.33,12.32-2.86,9.97-4.17,14.47-13.57,14.47-13.57l-13.03-18.57s-6.85,8.24-17.19,10.97c-.44.12-.88.22-1.34.33h0Z"/>
        <path class="st15" d="M303.9,208.76l1.29,3.99.94,2.9,34.4-7.23s-.23-1.36-.96-2.9c-.86-1.81-2.41-3.87-5.08-4.24-9.16-1.29-17.15-4.17-18.42-4.99-.57-.37-1.33-.44-2-.19l-10.24,4.17c-.93.35-1.49,1.23-1.34,2.12l.49,2.87c.21,1.19.52,2.36.93,3.5h-.01Z"/>
        <path class="st11" d="M305.19,212.75l.94,2.9.13-.03.47,2.24,4-.84-.47-2.24,3.59-.75.47,2.24,4.04-.85-.47-2.24,3.3-.69.47,2.24,4.05-.85-.47-2.24,3.52-.74.47,2.24,4.05-.85-.47-2.24,3.73-.78.47,2.24,4-.84-.47-2.24s-.23-1.36-.96-2.9l-34.38,7.22h0Z"/>
        <path class="st17" d="M321.96,202.78c-.06,0-.12-.03-.17-.08-.08-.09-.07-.23.03-.31l3.51-2.95c.09-.08.23-.07.31.03.08.09.07.23-.03.31l-3.51,2.95s-.09.05-.14.05h0Z"/>
        <path class="st17" d="M318.73,201.82c-.06,0-.12-.03-.17-.08-.08-.09-.07-.23.03-.31l3.51-2.95c.09-.08.23-.07.31.03.08.09.07.23-.03.31l-3.51,2.95s-.09.05-.14.05h0Z"/>
        <path class="st17" d="M322.74,198.69c-.07,0-.14-.03-.18-.1-.07-.1-.04-.24.06-.3.03-.02,3.27-2.19,3.27-3.88,0-.43-.23-.79-.69-1.1-.43-.28-.81-.34-1.17-.17-1.25.59-1.87,3.87-2,5.08,0,.03-.01.06-.03.08,0,.02-.02.03-.03.04-.03.03-.06.05-.1.06-.08.02-.15,0-.2-.04-.11-.09-2.66-2.16-2.8-3.74-.03-.37.07-.7.3-.96.27-.31.54-.32.72-.28.83.21,1.51,2.3,1.88,3.68.26-1.42.87-3.75,2.08-4.33.49-.23,1.03-.17,1.59.2.59.38.89.88.89,1.46,0,1.92-3.32,4.15-3.46,4.24-.04.02-.08.04-.12.04v.02ZM319.73,193.82s-.13.02-.23.15c-.15.17-.21.38-.19.64.09,1,1.39,2.33,2.14,3-.42-1.66-1.11-3.63-1.67-3.78h-.05Z"/>
        <path class="st2" d="M305.19,165.95l-20.42,10.32s-4.97-5.93-9.63-13.76c-6.73-11.3-12.14-19.8-10.4-29.51,1.34-7.42,25.98,3.88,25.98,3.88,0,0,9.53,18.17,14.47,29.08h0Z"/>
        <path class="st0" d="M263.75,103.9s-6,2.3-11.11,7.12c-5.26,4.96-7.59,16.26-7.59,16.26l6.85,3.31s4.73-7.52,9.16-9.99c4.43-2.46,8.16-3.85,8.16-3.85l-5.47-12.84h0Z"/>
        <path class="st0" d="M297.03,120.86s6.74,3.23,13.95-.7c6.94-3.78,12.49-14.75,12.49-14.75l-4.52-5.55s-8.32,6.35-13.16,7.87c-4.83,1.51-8.77,2.11-8.77,2.11v11.01h0Z"/>
        <path class="st0" d="M254.28,126.85s-4.57,8.61-6.19,10.21-6.38,5.92-6.97,4.74c-.59-1.19,2.14-4.03,2.14-4.03,0,0-2.95,2.64-3.88,2.74-.93.11-1.18-1.13-.07-2.68,1.11-1.55,3.71-4.22,3.71-4.22,0,0-4.13,2-5.18,2.58-1.36.75-3.23-.07-.93-2,1.53-1.28,4.27-3.22,4.27-3.22,0,0-4.65,1.05-4.94.56-.29-.49-.09-.94,1.05-1.69,1.14-.74,5.34-1.99,5.83-2.54.2-.22.64-.89,1.1-1.61.81-1.26,2.39-1.79,3.79-1.25l6.28,2.41h-.01Z"/>
        <path d="M243.68,137.76c-.06,0-.11-.02-.16-.06-.08-.09-.08-.22,0-.31l2.7-2.68c.08-.08.22-.08.31,0,.08.09.08.22,0,.31l-2.7,2.68s-.1.06-.15.06Z"/>
        <path d="M243.12,133.99c-.07,0-.14-.03-.18-.09-.07-.1-.05-.23.05-.3l2.1-1.49c.1-.07.23-.05.3.05s.05.23-.05.3l-2.1,1.49s-.08.04-.13.04h0Z"/>
        <path d="M240.65,131.44c-.09,0-.17-.05-.2-.14-.04-.11.02-.24.13-.28l3.03-1.13c.11-.04.24,0,.28.13.04.11-.02.24-.13.28l-3.03,1.13s-.05,0-.08,0Z"/>
        <path class="st0" d="M317.03,102.68s.28-4.23.74-5.23,2.66-2.01,2.66-2.01c0,0,3.59-2.45,4.63-2.11s1.27,2.27,1.27,2.27c0,0,3.87,3.3,4.05,6.21.18,2.91-8.83,6.41-8.83,6.41l-4.52-2.17v-3.38h0Z"/>
        <path class="st11" d="M302.45,123.93v-15.57s-5.36-4.81-19.19-7.25c-14.05-2.48-28.99,6.05-28.99,6.05l6.32,14.41,4.46-1.66-1.29,15.59,29.3,2.72,1.71-14.69,7.68.4h0Z"/>
        <path class="st6" d="M277.95,166.17c-.07,0-.14-.04-.18-.1-.09-.14-8.85-13.9-11.35-19.2-.05-.11,0-.24.1-.29.11-.05.24,0,.29.1,2.5,5.28,11.24,19.01,11.33,19.15.06.1.03.24-.07.3-.04.02-.08.03-.12.03h0Z"/>
        <path class="st6" d="M267.43,143.51h-.09c-.12,0-.22-.1-.22-.22s.1-.21.22-.21h.08c4.35,0,5.63-4.91,5.64-4.96.03-.12.14-.19.26-.16s.19.15.16.26c-.01.05-1.37,5.29-6.06,5.29h0Z"/>
        <path class="st6" d="M288.45,174.88c-.07,0-.13-.03-.18-.09-9.89-13.8-18.95-31.22-19.04-31.39-.06-.11-.01-.24.09-.29.11-.06.24,0,.29.09.09.17,9.14,17.56,19.01,31.34.07.1.05.23-.05.3-.04.03-.08.04-.13.04h0Z"/>
        <path class="st6" d="M252.52,158c-.11,0-.2-.08-.22-.18-.02-.12.06-.23.18-.25,8.69-1.38,15.97-6.43,16.04-6.48.1-.07.23-.05.3.05.07.1.05.23-.05.3-.07.05-7.43,5.16-16.23,6.56h-.03.01Z"/>
        <path class="st0" d="M278.87,97.3l-.11,5.23s.91,1.52,3.96,1.84c2.27.23,3.09-.26,3.09-.26l-.26-2.65-.26-2.59-5.5-1.33-.92-.22v-.02Z"/>
        <path d="M279.8,97.52c.01.14.06.31.14.51,1.11,2.64,4.3,3.27,5.61,3.41l-.26-2.59-5.5-1.33h.01Z"/>
        <path class="st0" d="M286.71,86.97s2.6,6.61,1.44,10.23-4.47,2.92-6.44,2.14-2.85-2.04-2.85-2.04c0,0-1.89.56-3.07-1.21-1.18-1.78-.34-3.74.74-4.15s2.32.4,2.32.4l-.92-1.93s4.52-9.46,8.77-3.44h.01Z"/>
        <path d="M286.12,95.23s-.05,0-.07-.01c-.11-.04-.17-.17-.13-.28.42-1.17-.42-2.51-.42-2.52-.06-.1-.04-.24.07-.3.1-.07.24-.04.3.07.04.06.96,1.52.47,2.9-.03.09-.12.14-.21.14h0Z"/>
        <path d="M278.46,95.38c-.06,0-.12-.03-.16-.08l-1.69-1.95c-.08-.09-.07-.23.02-.31.09-.08.23-.07.31.02l1.69,1.95c.08.09.07.23-.02.31-.04.04-.09.05-.14.05h0Z"/>
        <path d="M276.61,94.8c-.11,0-.2-.08-.22-.19-.01-.12.07-.23.19-.24l1.23-.13c.12-.01.23.07.24.19.01.12-.07.23-.19.24l-1.23.13h-.02Z"/>
        <path d="M282.25,90.31s-.07,0-.11-.03c-.1-.06-.14-.19-.08-.3.48-.84,1.57-.57,1.61-.56.12.03.19.15.16.27-.03.12-.15.19-.27.16-.03,0-.81-.2-1.12.35-.04.07-.11.11-.19.11h0Z"/>
        <path d="M287.29,89.78s-.11-.02-.15-.06c-.11-.1-.46-.36-.77-.34-.15.01-.29.1-.4.25-.07.1-.21.12-.31.04-.1-.07-.12-.21-.04-.31.19-.26.44-.4.72-.42.58-.05,1.08.44,1.11.46.09.08.09.22,0,.31-.04.04-.1.07-.16.07Z"/>
        <path d="M284.77,97.24c-.09-.01-1.17-.24-1.63-1.06-.06-.11-.02-.24.08-.3.11-.06.24-.02.3.08.36.64,1.28.84,1.29.84.12.02.19.14.17.26-.02.1-.11.18-.21.18Z"/>
        <path d="M287.02,92.25c-.1,0-.19-.07-.21-.18l-.21-1.14c-.02-.12.06-.23.18-.25s.23.06.25.18l.21,1.14c.02.12-.06.23-.18.25h-.04Z"/>
        <path d="M283.83,92.48c-.1,0-.19-.07-.21-.18l-.21-1.14c-.02-.12.06-.23.18-.25s.23.06.25.18l.21,1.14c.02.12-.06.23-.18.25h-.04Z"/>
        <path class="st0" d="M329.68,103.45s-3.18,3.77-4.84,2.39-3.63-4.35-3.63-4.35l4.14-4.52,4.33,6.49h0Z"/>
        <path d="M278.94,92.46s1.4-.25,2.27-1.78,1.04-3.71,1.04-3.71c0,0,.88,1.1,2.75,1.04,1.86-.06,1.7-.86,1.7-.86l.32.53s1.84-4.92-.94-5.44c-2.79-.52-3.83.94-3.83.94,0,0-4.57.22-6.62,3.27-2.05,3.05.05,6.24.05,6.24,0,0,1.28-1.29,3.26-.23h0Z"/>
        <g>
          <path class="st4" d="M326.34,95.61l-2.07,1.84,2.07-1.84Z"/>
          <path d="M324.27,97.67c-.06,0-.12-.02-.16-.07-.08-.09-.07-.23.02-.31l2.07-1.84c.09-.08.23-.07.31.02s.07.23-.02.31l-2.07,1.84s-.09.06-.15.06h0Z"/>
        </g>
        <g>
          <path class="st0" d="M318.4,96.7s5.98-.46,5.87,1.44-2.93,1.82-2.93,1.82c0,0,.33,4.46-2.52,4.86l-.42-8.12Z"/>
          <path d="M318.82,105.04c-.11,0-.2-.08-.22-.19-.02-.12.07-.23.19-.25,2.61-.36,2.33-4.58,2.33-4.63,0-.06.02-.12.06-.17.04-.04.12-.07.16-.07.03,0,2.61.05,2.71-1.62.01-.18-.05-.34-.2-.49-.88-.87-4.22-.81-5.43-.72-.12.02-.23-.08-.23-.2s.08-.23.2-.23c.19-.01,4.57-.34,5.77.84.24.23.35.51.33.82-.09,1.55-1.84,2-2.92,2.03.03.96-.06,4.49-2.72,4.86h-.03v.02Z"/>
        </g>
        <g>
          <path class="st0" d="M325.6,103.92s-1.74-.45-1.89-1.41c-.15-.97,4.4-4.25,4.4-4.25l-2.51,5.67h0Z"/>
          <path d="M325.6,104.14h-.05c-.08-.02-1.88-.5-2.05-1.59-.16-1.02,3.4-3.67,4.49-4.46.1-.07.23-.05.3.05.07.1.05.23-.05.3-2.14,1.54-4.39,3.53-4.31,4.04.1.67,1.28,1.12,1.73,1.24.12.03.19.15.16.27-.03.1-.11.16-.21.16h-.01Z"/>
        </g>
        <g>
          <path class="st0" d="M326.53,105.83s-1.54-.89-.93-1.91c.61-1.02,4.27-2.56,4.27-2.56l-3.34,4.48h0Z"/>
          <path d="M326.53,106.05s-.07,0-.11-.03c-.04-.02-.95-.56-1.14-1.32-.08-.31-.03-.61.14-.9.63-1.05,3.99-2.49,4.37-2.65.11-.05.24,0,.29.12.05.11,0,.24-.12.29-1,.42-3.69,1.69-4.16,2.47-.11.18-.14.37-.09.56.15.58.93,1.04.94,1.05.1.06.14.19.08.3-.04.07-.11.11-.19.11h-.01Z"/>
        </g>
        <path d="M323.52,102.33c-.32,0-.79-.07-1.13-.42-.41-.43-.51-1.13-.28-2.09.03-.12.14-.19.26-.16s.19.14.16.26c-.19.8-.13,1.37.17,1.68.39.4,1.08.27,1.09.27.12-.02.23.05.26.17.02.12-.05.23-.17.26-.01,0-.16.03-.36.03h0Z"/>
        <path class="st17" d="M283.48,104.82c-1.34,0-3.08-.44-4.86-2.14-.09-.08-.09-.22,0-.31.08-.09.22-.09.31,0,3.47,3.3,6.66,1.61,6.79,1.54.11-.06.24-.02.3.09.06.11.02.24-.09.3-.02.01-.99.53-2.44.53h-.01Z"/>
        <path class="st17" d="M294.78,123.75c-.13,0-.22-.11-.22-.23l.24-4.39c0-.12.11-.2.23-.21.12,0,.21.11.21.23l-.24,4.39c0,.12-.1.21-.22.21Z"/>
        <path class="st17" d="M278.94,92.46s2.67-2.94,5.53-3.4,3.02.23,3.02.23l-.27-2.3s-1.2-.93-4.74.2c-3.7,1.19-5.41,4.87-5.41,4.87l1.86.39h.01Z"/>
      </g>
      <g>
        <path d="M688.07,74.54s-2.58,5.37-4.02,12.8c-1.15,5.94-2.04,12.16-2.04,12.16l6.42.75,1.18-19.71-1.54-6Z"/>
        <path class="st23" d="M685.75,85.67l-1.58,2.48s-1.21,5.36-3.25,5.84c-2.04.47-2.64-2.59-2.64-2.59l.12-6.85,3.73.64s5.2-2,3.62.48h0Z"/>
        <rect x="677.72" y="79.64" width="11.98" height="6.77" rx="1.08" ry="1.08" transform="translate(402.21 711.61) rotate(-72.8)"/>
        <rect class="st2" x="678.42" y="79.86" width="11.98" height="6.77" rx="1.08" ry="1.08" transform="translate(402.5 712.44) rotate(-72.8)"/>
        <path d="M682.79,87.71c-.17.43,0,.9.38,1.05s.83-.07,1-.5,0-.9-.38-1.05-.83.07-1,.5Z"/>
        <path class="st23" d="M675.89,84.83s.49,9.46,2.59,9.08c2.1-.38,4.44-5.19,1.65-7.63s-4.24-1.45-4.24-1.45h0Z"/>
        <path class="st14" d="M682.6,111.8s-6.76,5.73-11.5,3.51c-5.76-2.69-3.68-12.46-2.62-15.63s5.57-10.41,5.57-10.41l8.55,4.25-1.36,8.08,1.36,10.2Z"/>
        <path class="st23" d="M677.34,83.85s-2.75-.9-1.62-2.02c1.13-1.12,6.35-.69,6.58.94.23,1.63-4.96,1.08-4.96,1.08Z"/>
        <path class="st23" d="M677.16,86.23s-2.75-.9-1.62-2.02c1.13-1.12,6.35-.69,6.58.94.23,1.63-4.96,1.08-4.96,1.08Z"/>
        <path class="st23" d="M678.39,88.51c-.65.08-1.31,0-1.9-.26-.53-.24-.96-.61-.55-1.19.82-1.14,5.43-1.56,5.88-.17.33,1.03-2.15,1.46-3.43,1.62Z"/>
        <path d="M680.44,84.12l-3.59-.24c-.12,0-.21-.11-.2-.23,0-.12.11-.2.23-.2l3.58.24c.12,0,.21.11.2.23,0,.11-.1.2-.22.2Z"/>
        <path d="M676.4,86.37c-.12,0-.21-.09-.22-.21,0-.12.09-.22.21-.22l4.43-.12c.12,0,.22.09.22.21s-.09.22-.21.22l-4.43.12h0Z"/>
        <path d="M697.42,76.39s3.94-.15,3.92,10.83c-.02,9.83,0,10.84,0,10.84l-7.33-1.55,1.11-17.43,2.31-2.69h0Z"/>
        <rect class="st23" x="701.24" y="193.74" width="10.99" height="7.3" transform="translate(3.48 406.84) rotate(-32.19)"/>
        <rect class="st23" x="675.65" y="194.09" width="10.78" height="10.99" transform="translate(169.21 691.2) rotate(-60.18)"/>
        <path class="st1" d="M680.91,126.56s-3.34,11.19-.54,25.21c2.8,14.02,14.96,49.38,16.22,48.95,1.27-.43,16.89-8.38,17.99-9.71s-14.24-37.16-14.24-37.16l-7.32-27.05-12.11-.24h0Z"/>
        <path class="st1" d="M705.67,124.82s4.15,6.46,1.13,25.91c-2.69,17.28-18.01,51.33-18.01,51.33,0,0-17.38-9.75-17.81-10.21-.43-.45,15.79-49.87,15.79-49.87l-5.86-17.17h24.76Z"/>
        <path class="st24" d="M681.97,156.92s-.06,0-.08-.02c-.11-.05-.17-.17-.12-.28,2.64-6.52,6.51-16.31,6.85-17.8l-5.72-1.83c-.12-.04-.18-.16-.14-.27s.16-.18.27-.14l5.89,1.89c.09.03.15.11.15.21,0,1.03-6.2,16.36-6.91,18.11-.03.09-.12.14-.2.14h0Z"/>
        <path class="st24" d="M693.54,192.27s-.05,0-.08-.02c-.11-.04-.17-.17-.12-.28.09-.22,8.82-21.96,9.74-27.33.02-.12.13-.2.25-.18s.2.13.18.25c-.92,5.41-9.4,26.52-9.76,27.42-.03.08-.12.14-.2.14h0Z"/>
        <path class="st13" d="M685.26,205.97s-.21-2.68-2.95-3.79c-2.02-.82-4.73,0-4.73,0,0,0-.15-4.31-1.67-5.47-1.52-1.16-4,.96-4,.96,0,0-16.24-3.95-17.79-.25-1.55,3.69,4.99,7.05,4.99,7.05,0,0,20.19,11.77,20.93,11.63.74-.15,5.22-10.13,5.22-10.13h0Z"/>
        <path class="st17" d="M670.02,202.4c-.09,0-.18-.06-.21-.15-.01-.04-1.37-4.3-5.32-5.33-.12-.03-.19-.15-.16-.27.03-.12.15-.18.27-.16,4.19,1.09,5.62,5.57,5.63,5.62.03.11-.03.24-.14.27h-.06v.02Z"/>
        <path class="st13" d="M705.83,200.76s.22-2.49,1.99-4.84c1.77-2.35,4.02-1.99,4.02-1.99l3.58,6.06c.34.58.35,1.29.03,1.87-1.63,2.99-6.59,12.03-6.99,12.16-.48.16-20.31,1.29-21.11.65s1.18-6.6,4.94-7.73l3.76-1.13,2.53-2.64s.2-3.84,2.78-4.47,4.45,2.06,4.45,2.06h.02Z"/>
        <path class="st17" d="M698.6,207.2s-.08,0-.12-.04c-.91-.62-2.07-1.23-2.35-1.15-.11.04-.24-.03-.27-.15-.03-.11.03-.24.15-.27.59-.18,2.23.88,2.72,1.21.1.07.13.2.06.3-.04.06-.11.1-.18.1h-.01Z"/>
        <path class="st17" d="M690.39,94.17c-1.41,0-2.39-.4-2.41-.41-.11-.05-.16-.18-.12-.29.05-.11.17-.16.29-.12.03.01,3.38,1.38,6.54-1.17.09-.08.23-.06.31.03s.06.23-.03.31c-1.62,1.3-3.28,1.64-4.58,1.64h0Z"/>
        <path class="st17" d="M697.16,122.07c-1.91,0-3.14-.08-3.17-.08-.12,0-.21-.11-.2-.23,0-.12.11-.22.23-.2.06,0,6.39.41,12.74-.65.12-.03.23.06.25.18s-.06.23-.18.25c-3.61.61-7.21.74-9.67.74h0Z"/>
        <path class="st11" d="M690.19,91.39s-5.26.8-7.89,6.89c-2.62,6.09-2,14.9-2,14.9,0,0-.8,12.54.71,13.17,1.52.62,8.3,1.62,13.86.55,5.4-1.04,8.86-3.17,8.86-3.17,0,0,.86-25.27-1.24-29.77s-12.32-2.58-12.32-2.58h.02Z"/>
        <path class="st14" d="M688.69,91.46s-1.59.42-3.17,1.54c-1.57,1.12-3.67,3.82-3.67,3.82l-2.04,8.02s-2.91,29.82-2.74,30.2c.17.38,2.71-.76,3.2-.71.49.05,5.71-41.12,8.42-42.87h0Z"/>
        <path class="st14" d="M694.94,90.17s-.6.87-.32,1.19c.62.71-.55,45.42-.24,45.72s5.76.93,9.49-.2c3.73-1.13,5.13-2.63,5.33-3.07s-3.54-35.16-3.84-36.57c-.29-1.41-3.35-7.42-10.41-7.07h-.01Z"/>
        <path class="st23" d="M694.94,86.51l-.11,4.97s-.93,1.41-3.84,1.58c-2.17.13-2.92-.38-2.92-.38l.36-2.51.35-2.45,5.28-1.04.89-.18h-.01Z"/>
        <path d="M694.05,86.68c-.02.14-.07.29-.16.48-1.17,2.46-4.22,2.93-5.47,3.01l.35-2.45,5.28-1.04h0Z"/>
        <path class="st23" d="M687.92,76.37s-2.75,6.18-1.8,9.66c.95,3.49,4.13,2.96,6.03,2.3,1.9-.66,2.79-1.82,2.79-1.82,0,0,1.77.61,2.96-1.03,1.2-1.64.48-3.54-.53-3.98s-2.22.28-2.22.28l.95-1.79s-3.91-9.17-8.19-3.63h0Z"/>
        <path d="M688.15,84.26c-.09,0-.18-.06-.21-.15-.41-1.33.53-2.69.57-2.75.07-.1.2-.12.3-.05s.12.21.05.3c0,.01-.85,1.24-.51,2.37.03.11-.03.24-.14.27h-.06,0Z"/>
        <path d="M695.42,84.71s-.11-.02-.15-.06c-.09-.08-.09-.22,0-.31l1.68-1.78c.08-.09.22-.09.31,0,.09.08.09.22,0,.31l-1.68,1.78s-.1.07-.16.07h0Z"/>
        <path d="M697.2,84.24l-1.2-.18c-.12-.02-.2-.13-.18-.25s.12-.2.25-.18l1.16.18c.12.02.2.13.18.25-.02.11-.11.19-.22.19h.01Z"/>
        <path d="M690.11,86.16c-.64,0-1.16-.52-1.19-.55-.05-.05-.07-.13-.06-.2.02-.07.07-.13.14-.16l2.42-.8c.08-.03.16,0,.22.05.06.06.08.14.06.22-.01.04-.28.92-1.08,1.32-.18.09-.35.12-.52.12h.01ZM689.54,85.54c.24.14.58.27.9.11.31-.15.52-.4.65-.62l-1.55.52h0Z"/>
        <path d="M692.03,79.73c-.08,0-.16-.04-.19-.12-.28-.54-1.03-.38-1.04-.38-.11.03-.23-.05-.26-.17-.03-.12.05-.23.17-.26.04,0,1.09-.23,1.52.6.05.11.01.24-.09.29-.03.02-.07.02-.1.02v.02Z"/>
        <path d="M688.69,79.02c-.07,0-.14-.03-.18-.1-.1-.15-.22-.23-.36-.25-.3-.04-.63.2-.74.29-.09.08-.23.07-.31-.02s-.07-.23.02-.31c.02-.02.53-.46,1.08-.4.27.03.5.18.67.44.07.1.04.24-.06.3-.04.03-.08.04-.12.04h0Z"/>
        <path class="st5" d="M690.85,93.37c-1.56,0-2.83-.47-2.86-.48-.11-.04-.17-.17-.13-.28s.17-.17.28-.13c.04.02,4.22,1.57,6.52-1.14.08-.09.21-.1.31-.03.09.08.1.22.03.31-1.17,1.38-2.77,1.75-4.15,1.75h0Z"/>
        <path d="M690.96,81.95c-.15-.02-.23-.13-.22-.25l.14-1.08-.31-.49c-.06-.1-.03-.24.07-.3.1-.06.24-.03.3.07l.35.56s.04.09.03.14l-.15,1.15c-.01.11-.11.19-.22.19h0Z"/>
        <path d="M687.53,81.67c-.15-.02-.23-.13-.22-.25l.16-1.06-.38-.5c-.07-.1-.05-.23.04-.31.1-.07.23-.05.31.04l.44.58s.05.11.04.16l-.17,1.15c-.02.11-.11.19-.22.19h0Z"/>
        <path d="M686.71,77.5s1.96.2,3.15.29l1.19.1.61-1.5v1.74s1.22.48,1.58.87c.36.39.86,1.36.86,1.36l.65-.84-.39,3.6s.61-1.66,1.78-1.64c1.17.02,1.54.25,1.54.25,0,0,1-3.46.83-4.43s-1.09-.92-1.09-.92c0,0-.97-3.3-5.71-3.3s-5.01,4.41-5.01,4.41h.01Z"/>
        <rect x="668.87" y="125.53" width="15.58" height="4.81" rx="1.73" ry="1.73"/>
        <path class="st2" d="M648.25,206.32c-.11,0-.21-.04-.3-.12l-44.01-41.01c-.18-.16-.19-.44-.02-.62.16-.17.44-.19.62-.02l44.01,41.01c.18.16.19.44.02.62-.09.09-.2.14-.32.14Z"/>
        <circle class="st11" cx="648.25" cy="205.88" r="10.57"/>
        <path class="st1" d="M643.21,205.88c0,2.78,2.26,5.04,5.04,5.04s5.04-2.26,5.04-5.04-2.26-5.04-5.04-5.04-5.04,2.26-5.04,5.04Z"/>
        <path class="st17" d="M643.79,117.08l-17.06,29.08h-33.74s3.39-3.49,5.14-7.56c1.74-4.07.78-13.28.78-13.28,0,0,5.62-.19,9.79-3.1,4.17-2.91,6.01-7.66,6.01-7.66,0,0,5.14,1.84,9.11.87,3.97-.97,6.5-4.27,6.5-4.27,0,0,2.62,6.59,13.48,5.91h-.01Z"/>
        <path class="st11" d="M650.45,170.2h-41.63c-8.44,0-15.3-6.85-15.3-15.3v-5.93h72.22v5.93c0,8.44-6.85,15.3-15.3,15.3h.01Z"/>
        <rect class="st2" x="592.02" y="144.42" width="75.23" height="6.98" rx="1.89" ry="1.89"/>
        <path class="st14" d="M624.3,146c-.1,0-.18-.06-.21-.15l-9.11-29.57c-.03-.11.03-.24.14-.27s.24.03.27.14l8.85,28.72,5.75-31.21c.02-.12.14-.2.25-.18.12.02.2.14.18.25l-5.91,32.09c-.02.1-.1.17-.2.18h-.01Z"/>
        <path class="st14" d="M624.3,146s-.1-.02-.14-.05l-23.56-19.19c-.09-.08-.11-.21-.03-.31.08-.09.21-.11.31-.03l23.56,19.19c.09.08.11.21.03.31-.04.05-.11.08-.17.08Z"/>
        <path class="st14" d="M650.48,146h-16.09c-.12,0-.22-.1-.22-.22s.1-.22.22-.22h16.09c.12,0,.22.1.22.22s-.1.22-.22.22Z"/>
        <path class="st14" d="M619.84,145.78c0,2.46,2,4.46,4.46,4.46s4.46-2,4.46-4.46-2-4.46-4.46-4.46-4.46,2-4.46,4.46Z"/>
        <path class="st5" d="M621.98,145.78c0,1.29,1.04,2.33,2.33,2.33s2.33-1.04,2.33-2.33-1.04-2.33-2.33-2.33-2.33,1.04-2.33,2.33Z"/>
        <path class="st19" d="M604.04,206.32c-.11,0-.21-.04-.3-.12-.18-.16-.19-.44-.02-.62l71-76.21c.17-.18.44-.19.62-.02.18.16.19.44.02.62l-71,76.21c-.09.09-.2.14-.32.14h0Z"/>
        <circle class="st11" cx="604.04" cy="205.88" r="10.57"/>
        <path class="st1" d="M599,205.88c0,2.78,2.26,5.04,5.04,5.04s5.04-2.26,5.04-5.04-2.26-5.04-5.04-5.04-5.04,2.26-5.04,5.04Z"/>
        <path class="st23" d="M686.45,118.39s-6.7-.4-9.1,1.33c-2.4,1.73-2.65,7.46-2.28,7.95.36.49,1.19.26,1.19.26,0,0,.09,1.05.62,1.37.53.32,1.31-.33,1.31-.33,0,0,.93,1.01,1.85.59s1.13-1.56.98-2.09c-.1-.35-.05-.89-.05-.89l.52.12s.94,1.03,3.23.7,4.3-4.02,4.3-4.02l-2.57-5h0Z"/>
        <path d="M676.26,128.16c-.12,0-.22-.09-.22-.21,0-.14-.06-3.34.84-4.81.06-.1.2-.14.3-.07.1.06.14.2.07.3-.84,1.37-.78,4.55-.78,4.58,0,.12-.09.22-.21.22h0Z"/>
        <path d="M678.18,129.2c-.11,0-.2-.08-.22-.2-.01-.13-.34-3.32,1.13-4.74.09-.08.23-.08.31,0,.08.09.08.22,0,.31-1.32,1.27-1,4.35-1,4.38.01.12-.07.23-.19.24h-.03Z"/>
        <path class="st14" d="M685.24,115.82l2.24,10.87s15.52,1.15,22.16-9.15c6.64-10.3-3.83-24.79-9.24-25.57-3.31-.48-3.39,17.96-3.39,17.96l-11.77,5.89h0Z"/>
        <path class="st5" d="M693.75,111.63c-.09,0-.17-.06-.21-.14-.04-.11.02-.24.13-.28l5.57-2c.11-.04.24.02.28.13.04.11-.02.24-.13.28l-5.57,2s-.05.01-.07.01Z"/>
        <path class="st5" d="M695.26,110.95s-.09-.02-.13-.05c-.08-.06-.1-.17-.07-.26.18-.42,1.8-4.15,2.97-4.39.21-.04.41.02.57.17.16.15.24.36.22.6-.08,1.31-3.08,3.62-3.43,3.88-.04.03-.09.04-.13.04h0ZM698.16,106.68h-.05c-.59.12-1.59,1.86-2.28,3.31,1.04-.87,2.51-2.25,2.55-3,0-.11-.02-.19-.09-.26-.04-.04-.09-.06-.14-.06h.01Z"/>
        <path class="st5" d="M678.9,114.46c-.12,0-.22-.1-.22-.22,0-.27-.03-6.61,1.09-10.18,1.14-3.6,2.89-4.99,2.96-5.05.09-.07.23-.06.31.04.07.09.06.23-.04.31-.02.01-1.72,1.38-2.81,4.83-1.11,3.5-1.08,9.98-1.07,10.04,0,.12-.1.22-.22.22h0Z"/>
      </g>
      <g>
        <path d="M829.3,69.84s5.48-.87,8.82,2.67c5.34,5.67,1.76,11.46,1.76,11.46,0,0,10.25.21,10.12,10.21-.09,7.61-11.16,8.43-11.16,8.43l-32.52-16.54s-3.66-6.86,3.02-14.14c6.68-7.27,18.23-5.05,18.23-5.05l1.73,2.94v.02Z"/>
        <path class="st2" d="M899.39,101.49s15.18,12.85,11.96,31.58c-3.21,18.72-23.82,12.2-26.14,8.37-2.33-3.83-2.1-20.37-2.1-20.37l9.53-20.46,6.76.89h-.01Z"/>
        <path d="M812.88,56.09s9-5.13,15.55,1.94c7.04,7.59,1.1,16.2,1.1,16.2,0,0-26.5-.54-19.84-3.68s3.19-14.46,3.19-14.46h0Z"/>
        <path class="st0" d="M759.23,95.62s-1.31-4.59-2.94-5.89c-1.64-1.3-7.61-3.91-8.49-2.61s2.63,4.51,2.63,4.51c0,0-3.43-.4-8.57.51-5.15.91-5.08,2.32-5.08,2.32,0,0-3.61.15-4.01,1.68s2.82,2.94,2.82,2.94c0,0-6.38,1.42-3.93,3.34s9.55,3.2,15.1,3.19c5.55-.01,7.53-.37,7.53-.37l4.92-9.62h.02Z"/>
        <path d="M741.19,100.74c-.09,0-.18-.04-.24-.11-.12-.13-.12-.34.02-.47l6.95-6.46c.13-.12.34-.12.47.02.12.13.12.34-.02.47l-6.95,6.46c-.06.06-.14.09-.22.09h-.01Z"/>
        <path d="M756.41,98.52c-.29-.02-6.45-.61-6.65-4.65,0-.18.13-.34.31-.35.18,0,.34.13.35.31.17,3.47,5.96,4.02,6.02,4.02.18.02.32.18.3.36-.02.17-.16.3-.33.3h0Z"/>
        <rect class="st23" x="896.9" y="213.25" width="18.75" height="7.92" transform="translate(93.17 672.6) rotate(-42.73)"/>
        <path class="st17" d="M884.56,133.47s0,23.74,11.05,42.32,20.64,28.46,20.64,28.46l-23.47,21.24s-26.83-17-33.45-46.79c-6.61-29.79-.08-46.12-.08-46.12l25.3.89h.01Z"/>
        <path class="st11" d="M812.22,81.42s-8.74.89-14.19,5.01c-5.46,4.12-16.83,12.6-19,14.2-1.97,1.45-15.92-9.73-18.51-11.83-.22-.17-.53-.11-.65.14-1.44,2.98-9.08,18.82-8.93,20,.16,1.31,17.78,17.33,30.52,16.36s19.48-10.81,19.48-10.81l11.28-33.08h0Z"/>
        <polygon class="st0" points="787.97 208.68 790.62 233.41 807.23 232.59 807.23 210.14 787.97 208.68"/>
        <path class="st15" d="M798.45,124.47s-9.53,18.24-14.05,43.35c-4.52,25.1-1.77,43.83-1.11,44.89s32,.94,33.08.07c1.07-.87,2.72-83.81,2.72-83.81l-18.05-4.62-2.59.13h0Z"/>
        <path class="st13" d="M786.72,245.44s-.54-13.98.32-14.3c.87-.32,24.74-1.5,25.64-1.27.89.23,1.06,31.26.16,31.85s-48.05,3.34-49.84,2.88c-1.78-.46,1.61-9.01,5.92-10.87s7.52-2.29,7.52-2.29l10.28-6h0Z"/>
        <polygon class="st0" points="817.29 209.56 828.59 232.24 844.4 227.12 837.97 203.98 817.29 209.56"/>
        <path class="st15" d="M806.44,129.9s-1.8,23.35,1.87,46.93c3.66,23.58,6.1,35.22,8.05,35.94,1.96.72,32.78-7.54,33.69-8.14.91-.59-12.79-27.49-13.45-34.07-.66-6.58-3.71-45.53-3.71-45.53l-26.45,4.86h0Z"/>
        <path class="st13" d="M828.09,242.78s-4.19-11.82-2.8-12.56,19.72-8.49,21.15-9.45c1.43-.96,6.62,20.78,6.62,20.78,0,0-14.02,19.93-14.68,20.54s-19.48,2.14-20.75,1.99c-1.71-.2-3.38-5.57.28-8.46,3.33-2.64,5.96-3.14,5.96-3.14l4.22-9.69h0Z"/>
        <rect class="st23" x="839.71" y="227.26" width="18.74" height="7.92" transform="translate(-1.2 4.45) rotate(-.3)"/>
        <path class="st11" d="M798.93,132.77s21.72,1.48,21.99-1.75c.6-7.38,4.18-46.16,4.18-46.16l-3.52-5.01-10.39,1.75s-4.98.78-9.22,14.45-3.04,36.72-3.04,36.72h0Z"/>
        <path class="st0" d="M822.36,75.03l.18,7.52s-1.3,2.2-5.69,2.66c-3.27.35-4.35-1.31-4.35-1.31l.63-6.6,7.9-1.94,1.33-.33h0Z"/>
        <path class="st13" d="M811.23,152.04c-.16,0-.3-.11-.32-.27-.04-.24-4.27-23.62-11.93-24.15-7.62-.5-11.13,20.56-11.17,20.78-.03.18-.19.31-.38.27-.18-.03-.3-.2-.27-.38.14-.88,3.56-21.34,11.54-21.34.11,0,.21,0,.32.01,8.17.56,12.36,23.71,12.53,24.69.03.18-.09.35-.27.38h-.06.01Z"/>
        <path d="M821.04,75.36c-.01.21-.09.45-.2.73-1.59,3.8-6.17,4.72-8.06,4.94l.36-3.73,7.9-1.94Z"/>
        <path class="st0" d="M811.04,60.19s-3.72,9.53-2.03,14.73c1.68,5.2,6.44,4.18,9.27,3.05s4.09-2.94,4.09-2.94c0,0,2.71.8,4.41-1.76,1.69-2.56.48-5.38-1.08-5.97-1.56-.59-3.33.58-3.33.58l1.32-2.78s-6.55-13.59-12.64-4.91h0Z"/>
        <path d="M822.36,67.88s-3.98,1.01-7-3.33c-3.02-4.34-2.85-6.19-2.85-6.19l-2.56,4.76s-.78-3.17.4-5.28c1.18-2.11,2.53-1.75,2.53-1.75l8.98,1.78,2.69,7-2.19,3.02h0Z"/>
        <path d="M813.67,74.63c-.2,0-.32-.02-.33-.03-.18-.04-.29-.21-.26-.39.04-.18.21-.29.39-.26.06.01,1.22.2,2.27-1.15.11-.14.32-.17.46-.06s.17.32.06.46c-.96,1.25-2.05,1.42-2.58,1.42h-.01Z"/>
        <path d="M811.93,72.11c-.14,0-.26-.08-.31-.22-.72-1.99.61-4.1.66-4.19.1-.15.3-.2.46-.1.15.1.2.3.1.46-.01.02-1.2,1.93-.6,3.61.06.17-.03.36-.2.42-.04.01-.07.02-.11.02Z"/>
        <path d="M816.36,67.74c-.12,0-.23-.06-.29-.17-.16-.28-.35-.44-.58-.5-.52-.11-1.11.31-1.11.31-.15.11-.35.08-.46-.07-.11-.15-.08-.35.07-.46.03-.02.83-.6,1.64-.43.43.09.77.37,1.02.82.09.16.03.36-.13.45-.05.03-.1.04-.16.04h0Z"/>
        <path d="M811.09,67.56c-.11,0-.22-.06-.28-.16-.09-.15-.42-.59-.73-.61-.15,0-.31.1-.47.31-.11.15-.32.18-.46.07-.15-.11-.17-.32-.06-.46.37-.5.77-.58,1.03-.57.71.04,1.2.84,1.26.93.09.16.04.36-.12.45-.05.03-.11.05-.17.05h0Z"/>
        <path d="M816.03,65.01c-.08,0-.16-.03-.22-.09-1.13-1.03-1.74-.53-1.76-.51-.13.12-.34.11-.46-.02s-.11-.34.02-.46c.04-.04,1.05-.96,2.66.5.14.12.15.33.02.47-.06.07-.16.11-.24.11h-.02Z"/>
        <path d="M809.92,64.95c-.08,0-.15-.03-.21-.08-.14-.12-.15-.33-.04-.46.14-.16.87-.97,1.53-.84.21.04.49.18.65.62.06.17-.03.36-.2.42s-.36-.03-.42-.2c-.02-.07-.08-.19-.14-.2-.19-.03-.63.3-.91.62-.06.08-.16.12-.25.12h-.01Z"/>
        <path d="M822.95,72.28c-.08,0-.15-.03-.21-.08-.14-.12-.15-.33-.04-.47l2.42-2.81c.12-.14.33-.15.47-.03.14.12.15.33.04.47l-2.42,2.81c-.07.08-.16.11-.25.11h0Z"/>
        <path d="M825.61,71.43l-1.81-.19c-.18-.02-.31-.18-.29-.36s.17-.31.36-.29l1.77.18c.18.02.31.18.29.36-.02.17-.16.3-.33.3h.01Z"/>
        <path class="st11" d="M813.98,133.14s8.46-52.45,8.45-52.92v-.47s9.82,2.62,13.39,6.85c2.6,3.08.76,44.79-.36,45.67-1.12.88-21.49.87-21.49.87h0Z"/>
        <path class="st21" d="M864.19,82.4l-7.43,41.65s-4.74,4.75-10.86,7.37c-2.22.95-4.61,1.61-7.02,1.68-7.05.17-12.86-3.09-15.11-4.57-.66-.44-1.02-.71-1.02-.71l16.87-20.35s1.36-4.65,8.07-14.02c6.71-9.36,16.51-11.04,16.51-11.04h-.01Z"/>
        <path class="st17" d="M848.86,133.09s-9.98,21.12-11.89,53.56c-1.91,32.44-1.43,44.53-1.43,44.53l31.83-1.57s-.91-32.59-.09-35.85c1.31-5.17-7.26-57.65-7.26-57.65l-11.16-3.02h0Z"/>
        <path class="st21" d="M846.12,126.38l-.45,10.06s7.54,2.69,19.95,2.08c12.41-.61,20.02-3.34,20.02-3.34l.76-50.49s-7.08-3.68-16.1-3.11c-7.51.48-9.63,1.78-9.63,1.78l-14.55,43.02h0Z"/>
        <path class="st11" d="M801.46,136.6s2.01-12.06,5.44-30.1c2.83-14.89,5.87-25.47,5.87-25.47,0,0-8.11,1.91-10.16,2.86-2.05.96-8.42,19.91-9.12,32.26s.64,19.72,1.3,20.23,6.68.22,6.68.22h-.01Z"/>
        <path class="st13" d="M860.05,173.03c-.14,0-.27-.09-.31-.23-1.5-4.75-2.22-18.45-2.33-20.56l-7.46-1.57c-.18-.04-.29-.21-.25-.39s.21-.3.39-.25l7.71,1.62c.15.03.25.16.26.31,0,.16.75,15.69,2.31,20.65.06.17-.04.36-.22.41-.03,0-.07.02-.1.02h0Z"/>
        <path class="st23" d="M847.07,117.01l-1.17,14.4c-2.22.95-4.61,1.61-7.02,1.68-7.05.17-12.86-3.09-15.11-4.57l23.31-11.51h-.01Z"/>
        <path class="st0" d="M808.7,117.01s-13.09,5.51-15.05,8.62c-1.96,3.11-1.07,11.46.04,11.4l1.11-.06s1.08,2.63,2.32,1.9c1.23-.73,1.94-2.44,1.94-2.44,0,0,.15,2.26,1.55,2.15,1.41-.11,4.76-7.81,4.76-7.81,0,0,5.67-.69,8.39-5.99,2.72-5.29-5.06-7.76-5.06-7.76h0Z"/>
        <path class="st11" d="M832.26,83.98s15.74,9.09,16.37,28.67c.62,19.58-35.75,20.19-37.11,19.91l-1.36-.28s-4.34-17.2-3.53-17.89c.8-.69,20.17-4.54,20.17-4.54l5.48-25.88h-.02Z"/>
        <path class="st11" d="M860.37,255.5c-.09,3-.28,5.2-.57,5.58-1.05,1.43-45.06,4.73-47.25,4.56-2.18-.17-1.46.2-2.18-.17-.56-.29-.44-3.49-.36-5.04.04-.5.06-.84.06-.84,0,0-.27-5.46,3.51-8.32,3.78-2.84,10.44-4.3,10.44-4.3,0,0,11.14-8.55,12.07-9.02s1.7-4.71,2.11-4.88c.42-.15,19.9-.56,21.13.22.89.58,1.27,14.22,1.02,22.19l.02.02Z"/>
        <path class="st11" d="M931.99,229.94c.18,1.68-28.65,32.61-30.29,33.9-1.65,1.31-.9,1.11-1.65,1.31s-4.03-3.95-4.03-3.95c0,0-.03-.04-.1-.1-.56-.59-3.57-3.97-2.83-8.03.81-4.47,4.55-9.82,4.55-9.82,0,0,2.29-13.26,2.64-14.19s-1.87-4.41-1.68-4.81c.18-.38,13.64-13.34,15-13.58,1.02-.18,10.68,9.73,15.57,15.45,1.66,1.94,2.77,3.39,2.82,3.81h0Z"/>
        <path class="st23" d="M874.61,75.74l.2,7.52s-1.3,2.2-5.69,2.68c-3.27.36-4.44-.35-4.44-.35l.35-3.82.35-3.73,7.9-1.96,1.32-.33h.01Z"/>
        <path d="M873.28,76.07c-.01.21-.08.45-.2.73-1.58,3.8-6.16,4.74-8.05,4.96l.35-3.73,7.9-1.96Z"/>
        <path class="st23" d="M863.24,60.94s-3.69,9.54-1.99,14.73c1.7,5.2,6.45,4.16,9.28,3.02,2.82-1.14,4.08-2.95,4.08-2.95,0,0,2.72.79,4.4-1.77,1.68-2.57.46-5.38-1.1-5.97-1.56-.59-3.33.59-3.33.59l1.31-2.78s-6.59-13.57-12.65-4.87h0Z"/>
        <path d="M864.17,72.85c-.13,0-.26-.08-.31-.22-.72-1.98.59-4.1.65-4.19.1-.15.3-.2.46-.1.15.1.2.3.1.46-.01.02-1.2,1.94-.59,3.61.06.17-.03.36-.2.42-.04.01-.08.02-.11.02Z"/>
        <path d="M875.19,72.99c-.08,0-.15-.03-.21-.08-.14-.12-.15-.33-.04-.47l2.41-2.82c.12-.14.33-.15.47-.04.14.12.15.33.04.47l-2.41,2.82c-.06.08-.16.12-.25.12h0Z"/>
        <path d="M877.84,72.14l-1.8-.18c-.18-.02-.31-.18-.29-.36s.18-.31.36-.3l1.77.18c.18.02.31.18.29.36-.02.17-.16.3-.33.3Z"/>
        <path d="M867.2,75.58c-.93,0-1.7-.7-1.74-.74-.08-.08-.12-.19-.1-.3s.1-.2.2-.25l3.6-1.4c.11-.04.24-.02.34.06.09.08.13.21.1.33-.01.06-.35,1.41-1.53,2.07-.29.17-.59.23-.87.23ZM866.38,74.68c.37.2.89.36,1.37.09.45-.25.75-.65.94-.99l-2.3.89h-.01Z"/>
        <path d="M868.24,69.15c-.21-.02-.34-.17-.33-.36l.14-1.75c.01-.18.17-.32.35-.3.18.01.32.17.3.35l-.14,1.75c-.01.17-.16.3-.33.3h.01Z"/>
        <path d="M863.04,68.99c-.21-.02-.35-.18-.33-.36l.17-1.75c.02-.18.17-.31.36-.3.18.02.31.18.3.36l-.17,1.75c-.02.17-.16.3-.33.3h0Z"/>
        <path d="M869.7,65.72c-.11,0-.22-.06-.29-.16-.45-.78-1.56-.5-1.6-.49-.18.05-.36-.06-.4-.23-.05-.18.06-.36.23-.4.06-.02,1.64-.42,2.34.8.09.16.04.36-.12.45-.05.03-.11.04-.17.04h0Z"/>
        <path d="M862.43,65c-.09,0-.17-.03-.24-.1-.13-.13-.12-.34,0-.47.03-.03.77-.74,1.6-.68.41.03.76.24,1.05.61.11.14.08.35-.06.46s-.35.08-.46-.06c-.17-.22-.35-.33-.57-.35-.44-.04-.94.35-1.09.49-.06.06-.15.09-.23.09h0Z"/>
        <path class="st5" d="M780.54,107.55c-.37,0-.7-.13-.97-.38-1.47-1.35-.93-6.05-.86-6.58.02-.13.11-.24.24-.28.13-.03.27.01.35.12.34.45,3.29,4.47,2.62,6.25-.11.3-.38.69-1.02.82-.12.03-.24.04-.36.04h0ZM779.28,101.54c-.12,1.66-.12,4.35.74,5.14.2.19.44.25.75.18.37-.08.49-.27.54-.41.36-.95-.9-3.27-2.02-4.92h0Z"/>
        <path class="st5" d="M793.35,120.68c-.22-.02-.35-.18-.33-.37.07-.63,1.75-15.55,2.58-18.74.05-.18.22-.29.4-.24.18.05.28.23.24.4-.82,3.14-2.55,18.49-2.56,18.65-.02.17-.16.29-.33.29h0Z"/>
        <path class="st5" d="M816.61,85.47c-2.71,0-4.24-1.25-4.32-1.32-.14-.12-.16-.32-.04-.46s.32-.16.46-.04c.02.02,2.03,1.63,5.45,1.02,3.37-.6,4.08-2.22,4.08-2.24.07-.17.26-.25.43-.18s.25.26.18.42c-.03.08-.81,1.97-4.58,2.64-.6.11-1.15.15-1.67.15h0Z"/>
        <path class="st5" d="M815.32,132.84c-.16,0-.31-.12-.33-.29-.02-.18.1-.35.28-.37.1,0,10.32-1.37,13.09-1.98.18-.04.35.07.39.25.04.18-.07.35-.25.39-2.8.61-12.72,1.93-13.14,1.99h-.04Z"/>
        <path class="st23" d="M827.98,106.33s10.7,1.59,8.39,4.04c-2.31,2.44-8.44,1.23-8.44,1.23l.04-5.26h.01Z"/>
        <path class="st23" d="M822.79,106.52s.53-6.2,3.43-4.38c2.89,1.82,4.57,12.95,1.27,14.24s-4.69-9.86-4.69-9.86h-.01Z"/>
        <path class="st23" d="M817.71,107.33s.53-6.2,3.43-4.38c2.89,1.82,4.57,12.95,1.27,14.24s-4.69-9.86-4.69-9.86h-.01Z"/>
        <path class="st23" d="M813.56,111.06c-.48-1.33-.67-2.75-.41-4.14.23-1.23.82-2.31,2.21-1.73,2.8,1.15,5.94,10.61,3.25,12.23-1.99,1.2-4.1-3.73-5.06-6.35h0Z"/>
        <path d="M819.38,114.73c-.15,0-.29-.1-.32-.25l-1.67-7.07c-.04-.18.07-.36.25-.4s.36.07.4.25l1.67,7.07c.04.18-.07.36-.25.4h-.08Z"/>
        <path d="M824.24,112.54c-.16,0-.3-.12-.33-.28l-1.04-6.7c-.03-.18.1-.35.28-.38.19-.03.35.1.38.28l1.04,6.7c.03.18-.1.35-.28.38h-.05Z"/>
        <path class="st2" d="M867.78,86.42c-2.29,0-4.14-.8-4.24-.84-.17-.07-.24-.27-.17-.43.07-.17.27-.24.43-.17.03.01,3.04,1.31,6.01.54,4.14-1.08,5.99-3.4,6.01-3.42.11-.14.32-.17.46-.06s.17.32.06.46c-.08.1-1.99,2.51-6.36,3.65-.75.2-1.5.27-2.21.27h0Z"/>
        <path class="st13" d="M898.91,213.11c-.09,0-.18-.04-.24-.11-.12-.13-.11-.34.02-.47l13.76-12.61c.13-.12.34-.11.47.02.12.13.11.34-.02.47l-13.76,12.61c-.06.06-.14.09-.22.09h-.01Z"/>
        <path class="st13" d="M848.79,225.57c-.17,0-.32-.14-.33-.31,0-.18.13-.34.31-.35l18.31-.91c.19,0,.34.13.35.31,0,.18-.13.34-.31.35l-18.31.91h-.02,0Z"/>
        <path class="st1" d="M839.38,240.79s-.09,0-.14-.03l-4.18-1.89c-.17-.07-.24-.27-.17-.44.08-.17.27-.24.44-.17l4.18,1.89c.17.07.24.27.17.44-.06.12-.18.19-.3.19h0Z"/>
        <path class="st1" d="M836.21,245.14s-.06,0-.1,0l-6.67-2.01c-.17-.05-.27-.24-.22-.41.05-.17.24-.27.41-.22l6.67,2.01c.17.05.27.24.22.41-.04.14-.17.23-.32.23h.01Z"/>
        <path class="st1" d="M899.82,231.48c-.14,0-.26-.09-.31-.22-.06-.17.03-.36.2-.42l3.83-1.31c.17-.06.36.03.42.2s-.03.36-.2.42l-3.83,1.31s-.07.02-.11.02Z"/>
        <path class="st1" d="M898.64,237.86c-.13,0-.25-.07-.3-.2-.07-.17,0-.36.17-.43l6.78-2.99c.17-.08.36,0,.43.17s0,.36-.17.43l-6.78,2.99s-.09.03-.13.03Z"/>
        <path class="st5" d="M791.36,248.56s-.08,0-.12-.02l-4.59-1.78c-.17-.07-.25-.26-.19-.43.07-.17.26-.25.43-.19l4.59,1.78c.17.07.25.26.19.43-.05.13-.18.21-.31.21Z"/>
        <path d="M794.79,136.71c-.16,0-.3-.11-.32-.27l-1.31-7.36c-.03-.18.09-.35.27-.38s.35.09.38.27l1.31,7.36c.03.18-.09.35-.27.38h-.06Z"/>
        <path d="M799.06,136.75c-.15,0-.28-.1-.32-.25l-1.74-6.54c-.05-.18.06-.36.23-.4.17-.05.36.06.4.23l1.74,6.54c.05.18-.06.36-.23.4-.03,0-.06,0-.08,0h0Z"/>
        <path d="M874.58,68.59s-.95.06-1.3-1.53,1.3-3.53,1.3-3.53c0,0-2.61-2.97-6.86-4.15-2.31-.64-4.48,1.55-4.48,1.55,0,0-4.45-5.52-2.44-6.65s3.78,0,3.78,0c0,0,5.71-1.47,10,1.78s4.31,5.96,4.31,5.96c0,0,2.4,1.09,2.4,2.6s-1.98,4.69-1.98,4.69c0,0-1.71-2.57-4.72-.73h-.01Z"/>
        <path class="st21" d="M881.58,82.98s9.28,2.01,16.04,10.13c6.25,7.51,7.75,16.68,7.75,16.68,0,0-6.96-2.4-10.9-2.36s-9.15,1.81-9.15,1.81l-3.74-26.27h0Z"/>
        <path class="st2" d="M884.3,83.83s-1.28,9.29-.15,15.9c1.21,7.06,5.16,16.54,5.16,16.54l-2.22,3.43s-2.75-1.34-4.35-3.59c-1.97-2.78-5.84-11.29-5.84-21.81s.74-12.79.74-12.79c0,0,5.27.98,6.67,2.32h0Z"/>
        <path class="st23" d="M904.55,109.52s6.58,18.45-4.38,20.66c-10.97,2.22-17.39-21.6-17.39-21.6l7.64-3.77,4.05,2.62s7.25.48,10.08,2.09Z"/>
        <path class="st23" d="M891.33,105.21s-.5-4.91-.99-7.17c-.5-2.25-2.73-3.99-2.73-3.99,0,0-2.52-2.68-3.59-2.71-1.08-.03-1.98,1.72-1.98,1.72,0,0-4.34,2.18-5.82,3.51-1.49,1.33-2.47,4.67-1.86,6.16.62,1.49,2.23,4.16,3.22,3.5.99-.65.84-2.93.84-2.93,0,0,2.88,7.59,7.96,8.27,5.08.69,4.96-6.37,4.96-6.37h-.01Z"/>
        <path d="M888.81,97.98c-.13,0-.26-.08-.31-.21l-1.15-2.92c-.07-.17.02-.36.19-.43s.36.02.43.19l1.15,2.92c.07.17-.02.36-.19.43-.04.02-.08.02-.12.02Z"/>
        <path d="M878.53,103.45c-.1,0-.19-.04-.25-.12l-1.37-1.63c-.12-.14-.1-.35.04-.47.14-.12.35-.1.46.04l.79.94v-.73c0-.18.15-.33.33-.33s.33.15.33.33v1.63c0,.14-.09.26-.22.31-.04.01-.08.02-.11.02h0Z"/>
        <path class="st1" d="M896.87,142.54c-1.49,0-3.16-.23-5.03-.8-.17-.05-.27-.24-.22-.41.05-.17.24-.27.41-.22,10.1,3.05,14.03-3.76,14.19-4.05.09-.16.29-.22.45-.13.16.09.22.29.13.45-.03.06-2.96,5.16-9.93,5.16h0Z"/>
        <path class="st14" d="M786.29,148.52s-6.5,45.11-5.98,45.35c.52.24,43.88-.51,44.63-.8.75-.28-5.75-45.71-5.75-45.71l-32.9,1.16h0Z"/>
        <path class="st1" d="M782.57,148.52s-6.5,45.11-5.98,45.35c.52.24,43.88-.51,44.63-.8.75-.28-5.75-45.71-5.75-45.71l-32.9,1.16h0Z"/>
        <path class="st13" d="M881.74,146.25c-1.18,0-2.24-.3-3.16-.89-2.45-1.58-3.01-4.66-3.04-4.79-.03-.18.09-.35.27-.38s.35.09.38.27c0,.03.55,2.94,2.75,4.36,1.28.83,2.88,1,4.76.52.18-.04.36.06.4.24.05.18-.06.36-.24.4-.75.19-1.45.29-2.12.29v-.02Z"/>
      </g>
      <g>
        <path class="st0" d="M473.38,110.38s-9.44-5.89-12.75-6.27-10.39,9.27-8.95,10.13,3.54-1.06,3.54-1.06c0,0-2.29,2.02-1.15,2.97,1.15.96,4.46-.2,4.46-.2,0,0,10.86,10.71,18.11,4.21,7.25-6.5-3.26-9.78-3.26-9.78Z"/>
        <path d="M469.61,114.63s-.08,0-.12-.02l-4.21-1.82c-.72,0-4.84-.09-5.83-1.41-.31-.41-.26-.76-.16-.98.54-1.25,4.15-1.72,4.87-1.81.17-.03.32.1.34.27s-.1.32-.27.34c-1.65.19-4.09.77-4.39,1.44-.03.07-.05.18.09.37.72.96,4.15,1.17,5.41,1.17.04,0,.08,0,.12.02l4.26,1.84c.15.07.23.25.16.4-.05.11-.16.18-.28.18h0Z"/>
        <path class="st20" d="M503.32,93.11s-9.09,14.46-16.19,16.02c-4.3.94-15.33-.64-15.33-.64l-6.46,17.04s15.1,12.22,30.17,5.92c10.1-4.21,15.34-13.07,15.34-13.07l-7.54-25.28h0Z"/>
        <path class="st6" d="M561.05,267.8c-28.01,0-50.79-22.78-50.79-50.79s22.78-50.79,50.79-50.79,50.79,22.78,50.79,50.79-22.78,50.79-50.79,50.79ZM561.05,170.81c-25.48,0-46.2,20.73-46.2,46.2s20.73,46.2,46.2,46.2,46.2-20.73,46.2-46.2-20.73-46.2-46.2-46.2Z"/>
        <path d="M505.14,258.54h-22.32c-2.01,0-3.63-1.63-3.63-3.63s1.63-3.63,3.63-3.63h22.32c2.01,0,3.63,1.63,3.63,3.63s-1.63,3.63-3.63,3.63Z"/>
        <circle cx="500.71" cy="238.03" r="12.76" transform="translate(89.19 609.54) rotate(-67.5)"/>
        <path d="M481.99,241.66h-22.32c-2.01,0-3.63-1.63-3.63-3.63s1.63-3.63,3.63-3.63h22.32c2.01,0,3.63,1.63,3.63,3.63s-1.63,3.63-3.63,3.63Z"/>
        <polygon class="st0" points="491.34 220.5 492.68 230.45 510.07 226.86 508.12 217.01 491.34 220.5"/>
        <polygon class="st0" points="459.53 206.85 457.56 216.69 475.17 218.96 476.53 209.01 459.53 206.85"/>
        <path class="st0" d="M513.25,80.16l.81,7.4s-1.1,2.27-5.39,3.1c-3.2.61-4.41,0-4.41,0l.04-3.8.04-3.7,7.63-2.57,1.28-.43Z"/>
        <path d="M511.93,81.24c0,.2-.05.43-.14.71-1.26,3.73-5.66,5-7.48,5.36l.07-3.55,7.56-2.52h0Z"/>
        <path class="st0" d="M501.27,67.71s-2.75,9.3-.74,14.08,6.42,3.43,9,2.14c2.58-1.3,3.63-3.11,3.63-3.11,0,0,2.63.54,4.02-2.02s.02-5.12-1.5-5.56c-1.52-.44-3.1.82-3.1.82l1.02-2.73s-7.28-12.31-12.33-3.62h0Z"/>
        <path d="M503.04,78.89c-.11,0-.22-.07-.28-.18-.83-1.82.24-3.92.29-4,.08-.15.26-.2.41-.13.15.08.21.26.13.41,0,.02-.99,1.93-.28,3.47.07.15,0,.33-.15.4-.04.02-.08.03-.13.03h0Z"/>
        <path d="M513.46,78.17c-.06,0-.12-.02-.18-.06-.14-.1-.17-.29-.07-.42l2.06-2.85c.1-.14.29-.17.42-.07.14.1.17.29.07.42l-2.06,2.85c-.06.08-.15.13-.25.13h.01Z"/>
        <path d="M515.9,77.16l-1.69-.03c-.17,0-.3-.14-.3-.31s.14-.3.3-.3l1.69.03c.17,0,.3.14.3.31s-.14.3-.3.3Z"/>
        <path d="M512.58,74.07s-.83.72-1.63-.23c-.8-.95.25-4.19.25-4.19,0,0-2.65.98-4.45.3-1.8-.68-2.96-3.05-2.96-3.05,0,0-.9,2.75-4.77,2.1s-5.25-5.62-1.41-7.18,6.24-.09,6.24-.09c0,0,.02-3.74,5.17-2.58,4.69,1.06,6.19,6.57,6.19,6.57,0,0,2.7-.23,3.61,2.63.9,2.86-2.24,5.42-2.24,5.42,0,0-2.09-.88-4,.29h0Z"/>
        <path d="M506.6,75.07c-.17,0-.3-.14-.3-.3v-1.67c0-.17.13-.3.29-.31.17,0,.31.14.31.3v1.67c0,.17-.13.3-.29.31h-.01Z"/>
        <path d="M501.67,75.33c-.17,0-.31-.14-.3-.31l.02-1.67c0-.17.16-.3.31-.3.17,0,.3.14.3.31l-.02,1.67c0,.17-.14.3-.3.3h-.01Z"/>
        <path d="M507.71,71.73c-.1,0-.19-.05-.25-.13-.49-.71-1.52-.36-1.56-.34-.16.06-.33-.03-.39-.18-.06-.16.03-.33.18-.39.06-.02,1.51-.52,2.26.57.1.14.06.33-.08.42-.05.04-.11.05-.17.05h.01Z"/>
        <path d="M500.79,71.61c-.07,0-.14-.02-.2-.07-.13-.11-.14-.3-.03-.43.03-.03.67-.76,1.45-.76.4,0,.74.17,1.03.49.11.13.1.32-.02.43-.13.11-.32.1-.43-.02-.17-.2-.36-.29-.57-.29-.43,0-.87.4-1,.55-.06.07-.14.1-.23.1Z"/>
        <path d="M505.21,81.11c-.1,0-.2,0-.3-.02-.17-.02-.28-.17-.26-.34s.17-.29.34-.26c1.34.16,1.94-1.2,1.95-1.21.07-.15.24-.23.4-.16.15.07.23.24.16.4-.25.58-1.02,1.59-2.28,1.59h-.01Z"/>
        <path class="st17" d="M477.1,214.55l-.41,18.66-.1,4.66s-48.34.5-49.15,0c-.49-.3-.61-2.43,0-4.66.4-1.45,1.09-2.95,2.21-4.03,2.82-2.76,17.52-7.71,18.92-8.39,1.42-.67,7.47-7.83,7.47-7.83l21.05,1.6h.01Z"/>
        <path class="st2" d="M476.7,233.21l-.1,4.66s-48.34.5-49.15,0c-.49-.3-.61-2.43,0-4.66h49.25Z"/>
        <path class="st11" d="M451.7,220.81s-.1,0-.15-.04c-.79-.44-7.75-4.33-8.07-6.48-.05-.33.04-.62.26-.85.22-.23.52-.35.88-.35,1.53,0,4.2,2.27,6.02,4-1.65-2.77-3.98-7.19-3.2-9.01.2-.46.58-.75,1.11-.84.63-.11,1.24.04,1.8.46,2.52,1.86,3.39,8.55,3.42,8.83.02.17-.1.32-.26.34-.17.03-.32-.1-.34-.26,0-.07-.87-6.72-3.18-8.42-.43-.32-.87-.43-1.34-.35-.33.06-.53.21-.65.48-.83,1.94,3.04,8.41,4.6,10.74.09.13.06.31-.06.41-.13.1-.3.08-.41-.03-1.48-1.59-5.72-5.72-7.5-5.73-.18.02-.34.05-.45.16-.09.09-.12.2-.1.33.24,1.57,5.69,4.89,7.77,6.04.15.08.2.27.12.41-.06.1-.16.16-.27.16h0Z"/>
        <path class="st17" d="M500.27,248.41c-.13,0-.26-.02-.39-.07-.6-.21-.9-.87-.69-1.47l31.7-88.1c.21-.59.87-.9,1.47-.69.6.21.9.87.69,1.47l-31.7,88.1c-.17.47-.61.76-1.08.76h0Z"/>
        <path class="st11" d="M506.6,140.78s-33.56,11.09-43.39,23.35c-9.83,12.26-8.55,46.83-8.55,46.83l28.17,1.13s.08-22.88,3.58-25.63c3.49-2.76,11.01-4.11,11.01-4.11l15.51-37.23-6.33-4.33h0Z"/>
        <rect x="518.29" y="154.83" width="27.37" height="8.68" rx="3.13" ry="3.13"/>
        <path class="st5" d="M491.08,116.14s-.1,0-.15-.02c-1.41-.31-3.64-5.78-4.08-6.88-.05-.12-.01-.26.09-.34.1-.09.24-.1.35-.03.19.11,4.66,2.79,4.95,5.27.08.68-.15,1.29-.69,1.8-.13.13-.29.19-.47.19h0ZM487.79,109.91c1.05,2.48,2.56,5.46,3.28,5.62.46-.4.63-.82.57-1.31-.18-1.6-2.57-3.43-3.85-4.3h0Z"/>
        <path class="st17" d="M403.01,218.16c-.18,0-.36-.04-.53-.13-.56-.29-.78-.98-.49-1.55l51.6-99.54c.29-.56.98-.78,1.55-.49.56.29.78.98.49,1.55l-51.6,99.54c-.2.39-.6.62-1.02.62Z"/>
        <path class="st17" d="M500.27,248.41c-.37,0-.74-.18-.96-.51l-63.34-95.71c-.2-.3-.25-.68-.12-1.02.12-.34.39-.6.74-.71.86-.27,21.38-6.4,58.37,7.63,46.46,17.63,66.91,58,67.11,58.41.28.57.05,1.25-.52,1.54l-60.78,30.25c-.16.08-.34.12-.51.12h.01ZM438.8,152.29l61.87,93.5,58.81-29.27c-3.47-6.32-23.84-40.53-65.33-56.27-30.6-11.61-49.99-9.05-55.36-7.95h.01Z"/>
        <path class="st17" d="M521.43,238.7l-23.16,17.01h-26.93s-3.45-2.08-.59-5.74c.16-.23.36-.46.59-.7,4.65-4.87,13.21-10.24,15.19-11.25,1.99-1.01,4.45-10.59,4.45-10.59l22.18-6.42,5.92,12.64,2.35,5.04h0Z"/>
        <path class="st11" d="M486.53,238.34h-.06c-1.04-.2-10.15-2.09-9.65-5.48.08-.51.35-.9.79-1.11,1.61-.79,5.36.82,7.52,1.9-1.3-1.51-3.16-3.99-2.98-5.62.06-.53.31-.94.75-1.22.38-.25.82-.3,1.3-.17,2.67.75,6.09,7.66,6.23,7.96.07.15.01.33-.14.41-.15.08-.33,0-.41-.14-.95-1.94-3.85-7.08-5.85-7.64-.31-.09-.57-.05-.81.09-.28.18-.44.43-.48.77-.2,1.77,2.81,5.24,3.99,6.42.11.11.12.28.03.4s-.26.16-.39.08c-1.82-1.02-6.89-3.49-8.5-2.69-.26.13-.41.34-.46.66-.36,2.39,6.5,4.27,9.17,4.79.16.03.27.19.24.36-.03.14-.16.25-.3.25v-.02Z"/>
        <path class="st2" d="M521.43,238.7l-23.16,17.01h-26.93s-3.45-2.08-.59-5.74h25.78l22.55-16.32,2.35,5.04h0Z"/>
        <path class="st11" d="M504.26,142.35s-17.87,28.26-18.5,41.22c-.7,14.29,1.46,39.23,1.46,39.23h31.06c-.33.63-.6-38.45,2.73-43.98,10.29-17.11,17.34-23.99,16.08-35.3-.6-5.37-32.83-1.16-32.83-1.16h0Z"/>
        <path class="st17" d="M499.29,143.31s.6-31.33,1.07-38.39c.3-4.52,1.2-11.5,1.2-11.5,0,0,0-2.43.3-3.41.31-.98,13.3-6.79,14.7-6.38,1.4.41-.6,3.18-.6,3.18,0,0,13.47,1.34,18.91,19.7,3.9,13.17,2.41,37.8,2.41,37.8l-37.98-1h0Z"/>
        <rect x="456.96" y="103.44" width="7.36" height="24.62" rx="2.65" ry="2.65" transform="translate(158.69 482.37) rotate(-64.63)"/>
        <path class="st0" d="M482.36,117.48s-9.44-5.89-12.75-6.27-10.39,9.27-8.95,10.13,3.54-1.06,3.54-1.06c0,0-2.29,2.02-1.15,2.97,1.15.96,4.46-.2,4.46-.2,0,0,8.73,10.22,18.11,4.21,8.2-5.25-3.26-9.78-3.26-9.78Z"/>
        <path d="M464.21,120.57c-.1,0-.19-.05-.25-.14-.09-.14-.06-.33.08-.42l4.2-2.79c.14-.09.33-.05.42.08.09.14.06.33-.08.42l-4.2,2.79s-.11.05-.17.05h0Z"/>
        <path d="M462.11,117.78c-.09,0-.18-.04-.24-.12-.1-.13-.07-.33.06-.43l4.19-3.15c.13-.1.32-.07.43.06s.07.33-.06.43l-4.19,3.15c-.06.04-.12.06-.18.06h-.01Z"/>
        <path class="st6" d="M481.22,114.49l-2.87,18.75s35.31,8.49,47.95-3.59c12.64-12.08-.19-39.57-10.68-37.8-7.5,1.26-11.52,18.62-11.52,18.62l-22.87,4.02h-.01Z"/>
        <path class="st6" d="M403.01,267.8c-28.01,0-50.79-22.78-50.79-50.79s22.78-50.79,50.79-50.79,50.79,22.78,50.79,50.79-22.78,50.79-50.79,50.79ZM403.01,170.81c-25.48,0-46.2,20.73-46.2,46.2s20.73,46.2,46.2,46.2,46.2-20.73,46.2-46.2-20.73-46.2-46.2-46.2Z"/>
        <circle class="st6" cx="402.98" cy="216.99" r="6.61" transform="translate(102.88 562.56) rotate(-77.33)"/>
        <circle class="st6" cx="561.05" cy="217.02" r="6.61" transform="translate(256.76 735.94) rotate(-80.76)"/>
        <path class="st5" d="M376.44,176.74c-.09,0-.18-.04-.24-.12-.1-.13-.07-.32.06-.43.07-.05,7.44-5.49,15.55-6.68.16-.03.32.09.35.26.02.17-.09.32-.26.35-7.96,1.17-15.2,6.51-15.28,6.57-.05.04-.12.06-.18.06h0Z"/>
        <path class="st5" d="M593.39,181.39c-.08,0-.17-.03-.23-.1-5.33-6.03-13.76-9.18-13.84-9.21-.16-.06-.24-.23-.18-.39s.24-.24.39-.18c.09.03,8.66,3.23,14.09,9.38.11.13.1.32-.03.43-.06.05-.13.08-.2.08h0Z"/>
        <path class="st17" d="M486.4,186.76c-.16,0-.29-.12-.3-.28,0-.05-.33-5.51,1.56-12.31,2-7.23,12.6-24.38,14.55-27.51h-4.68c-.17,0-.3-.14-.3-.3s.14-.3.3-.3h5.23c.11,0,.21.06.27.16.05.1.05.21,0,.31-.13.2-12.63,20.09-14.77,27.81-1.86,6.7-1.54,12.05-1.54,12.11.01.17-.12.31-.28.32h-.04Z"/>
        <path class="st17" d="M528.5,151.98c-5.53,0-7.34-5.47-7.36-5.53-.05-.16.04-.33.2-.38.16-.05.33.04.38.2.08.25,2.03,6.11,8.36,4.96.17-.03.32.08.35.24.03.17-.08.32-.24.35-.6.11-1.16.16-1.68.16h-.01Z"/>
        <path class="st17" d="M519.9,182.09c-1.01,0-4.51-.09-5.18-1.28-.13-.23-.22-.61.09-1.1.25-.41.63-.65,1.08-.69,1.68-.17,4.1,2.28,4.37,2.57.08.09.11.22.06.33-.06.15-.2.19-.42.19v-.02ZM516.07,179.61h-.12c-.27.03-.47.16-.63.41-.18.29-.1.43-.07.48.35.63,2.42.91,4.03.96-.86-.78-2.26-1.86-3.2-1.86h-.01Z"/>
        <path class="st5" d="M509.46,111.8c-1.89,0-4.74-.82-5.46-1.04-.12-.04-.21-.15-.22-.28,0-.13.07-.25.19-.29.63-.25,6.15-2.37,7.16.17.21.52.05.84-.11,1.02-.28.31-.86.42-1.57.42h0ZM505.09,110.44c2.23.6,4.99,1.07,5.49.53.03-.03.1-.11,0-.39-.57-1.41-3.62-.76-5.49-.15h0Z"/>
        <path class="st5" d="M510.86,89.07c-.12,0-.24-.07-.28-.2-.06-.16.02-.33.18-.39l5.1-1.95c.16-.06.33.02.39.18s-.02.33-.18.39l-5.1,1.95s-.07.02-.11.02h0Z"/>
      </g>
      <g>
        <polygon class="st0" points="141.08 236.72 140.84 250.48 122.09 250.48 122.09 235.03 141.08 236.72"/>
        <polygon class="st0" points="89.43 221.01 78.49 229.34 66.87 214.62 79 205.05 89.43 221.01"/>
        <path class="st0" d="M200.71,125.7s-3.96,6.65-16.48,5.38c-12.52-1.27-2.69-11.18-2.69-11.18l4.34-3.67,14.83,9.46h0Z"/>
        <path class="st11" d="M138.07,91.23s-17.61,45.85-16.78,46.58c.83.74,4.35,1.95,4.72,1.74s12.9-16.4,12.9-16.4c0,0,6.09,8.74,18.03,11.88,14.35,3.77,26.54-3.07,26.54-3.07l.15-15.9s-14.8-.89-19.52-3.89-13.49-17.2-26.04-20.94h0Z"/>
        <path class="st5" d="M162.16,117.52c-.14,0-.29-.03-.46-.13-.3-.16-.5-.44-.57-.78-.31-1.57,2.06-4.56,2.33-4.9.09-.11.23-.15.36-.1s.21.17.21.31c-.03.8-.24,4.8-1.44,5.49-.11.06-.25.11-.42.11h0ZM163.32,112.95c-.77,1.1-1.73,2.71-1.57,3.53.03.17.11.28.25.35.13.07.21.05.26.02.54-.31.9-2.22,1.05-3.9h.01Z"/>
        <path class="st5" d="M179.11,134.22c-.18,0-.32-.14-.32-.32l.07-17.96c0-.17.14-.32.32-.32s.32.14.32.32l-.07,17.96c0,.17-.14.32-.32.32Z"/>
        <path class="st17" d="M108.24,135.76s-2.28,24.79-15.61,43.13c-13.33,18.33-24.29,27.73-24.29,27.73l22.47,24.44s29.65-15.17,39.42-45.64c9.77-30.47,4.52-48.15,4.52-48.15l-26.51-1.5h0Z"/>
        <path class="st17" d="M145.56,138.8s8.39,23.01,7.27,57.07-2.79,46.64-2.79,46.64l-33.08-4.7s4.08-33.94,3.54-37.43c-.87-5.53,12.76-61.58,12.76-61.58h12.31-.01Z"/>
        <path class="st2" d="M128.21,179.13s-.08,0-.12-.02c-.16-.07-.24-.25-.17-.41,2.11-5.03,4.38-21.19,4.4-21.35.02-.14.13-.25.28-.27l8.21-.95c.17-.03.33.1.35.28.02.17-.1.33-.28.35l-7.97.92c-.3,2.12-2.38,16.44-4.41,21.27-.05.12-.17.19-.29.19h0Z"/>
        <path class="st2" d="M85.63,217.52c-.09,0-.17-.03-.23-.1l-13.15-14.49c-.12-.13-.11-.33.02-.45s.33-.11.45.02l13.15,14.49c.12.13.11.33-.02.45-.06.06-.14.08-.21.08h0Z"/>
        <path class="st2" d="M136.77,235.35h-.05l-19.03-2.71c-.17-.02-.29-.18-.27-.36.02-.17.18-.29.36-.27l19.03,2.71c.17.02.29.18.27.36-.02.16-.16.27-.31.27h0Z"/>
        <path class="st0" d="M186.18,115.72c.75-1.2,6.45-1.43,6.13.07-.14.67-2.87,2.32-2.87,2.32,0,0,4.9,10.03-.53,10.42-2.95.21-7.23-5.58-2.72-12.81h-.01Z"/>
        <path class="st0" d="M200.71,122.5s-2.8,7.32-8.78,6.66c-3.81-.42-5.94-8.92-5.94-8.92l7.92-3.94,6.79,6.19h.01Z"/>
        <path d="M190.82,125.62s-.07,0-.1-.02c-.17-.06-.25-.24-.19-.4,1.11-3.17.21-6.32.2-6.35-.05-.17.05-.34.21-.39.17-.05.34.05.39.21.04.14.97,3.37-.21,6.73-.05.13-.17.21-.3.21h0Z"/>
        <g>
          <polygon class="st1" points="187.26 126.89 197.52 129.12 204.17 111.02 188.7 107.67 187.26 126.89"/>
          <rect class="st2" x="194.46" y="101.14" width="3.84" height="17.45" rx=".81" ry=".81" transform="translate(47.44 278.53) rotate(-77.78)"/>
          <path class="st5" d="M198.45,122.19s-.07,0-.1-.02c-.16-.06-.25-.24-.2-.4l2.6-7.53c.06-.16.24-.25.4-.2.16.06.25.24.2.4l-2.6,7.53c-.05.13-.17.21-.3.21h0Z"/>
        </g>
        <path class="st0" d="M203.32,119.9s4.34-.22,3.14-2.29-8.95-3.51-9.92-1.23c-.98,2.28,6.78,3.52,6.78,3.52Z"/>
        <path class="st0" d="M202.63,123.44s4.34-.22,3.14-2.29-8.95-3.51-9.92-1.23,6.78,3.52,6.78,3.52Z"/>
        <path class="st0" d="M199.95,126.26c.91.37,1.89.53,2.86.38.86-.13,1.63-.51,1.27-1.51-.74-1.98-7.27-4.41-8.47-2.57-.89,1.37,2.54,2.97,4.34,3.7Z"/>
        <path d="M204.04,120.16h-.07l-5.41-1.2c-.17-.04-.28-.21-.24-.38s.2-.28.38-.24l5.41,1.2c.17.04.28.21.24.38-.03.15-.16.25-.31.25h0Z"/>
        <path d="M202.82,123.84h-.07l-5.41-1.2c-.17-.04-.28-.21-.24-.38s.2-.28.38-.24l5.41,1.2c.17.04.28.21.24.38-.03.15-.16.25-.31.25h0Z"/>
        <path class="st0" d="M186.99,115.34s4.58-1.81,4.71.32-4.37,3.93-4.37,3.93l-.34-4.25h0Z"/>
        <path class="st2" d="M167.18,267.68c.42-.02.74-.41.7-.85-.18-2.08-.94-7.93-4.02-10.64-3.78-3.33-12.13-5.24-15.03-7.49s-5.94-7.36-7.85-6.6-5.72,4.66-10.66,3.65c-4.94-1.02-7.14-2.41-8.59-1.32s-3.62,17.8-3.13,18.84c.49,1.05,7.6.71,8.2.93.6.21,2.66-3.64,3.76-2.94s2.35,2.69,3.98,3.69c1.52.94,27.54,3,32.63,2.75v-.02Z"/>
        <path class="st2" d="M80.07,261.66c.28.32.78.33,1.1.03,1.53-1.43,5.65-5.65,5.87-9.75.28-5.03-3.39-12.77-3.42-16.44-.03-3.68,2.11-9.22.33-10.25s-7.2-1.6-9.46-6.11-2.53-7.1-4.28-7.56c-1.75-.46-16.22,8.18-16.73,9.21s4.14,6.41,4.35,7.01c.2.6,4.5-.16,4.64,1.13.14,1.3-.66,3.51-.44,5.41.2,1.77,14.7,23.48,18.04,27.33h0Z"/>
        <path class="st6" d="M134.87,90.71c-17.73-1.58-28.12,7.34-28.12,7.34l4.72,14.19-2.82,5.49-1.2,21.35,38.71,1.57.33-19.74s2.57-28.94-11.62-30.2h0Z"/>
        <path class="st0" d="M128.83,85.19l-.33,7.34s1.23,2.17,5.51,2.71c3.19.4,4.34-.27,4.34-.27l-.28-3.74-.28-3.65-7.68-2.05-1.29-.35h0Z"/>
        <path d="M130.11,85.54c0,.2.08.44.18.72,1.48,3.74,5.94,4.73,7.78,4.98l-.28-3.65-7.68-2.05Z"/>
        <path class="st0" d="M140.17,70.93s3.44,9.38,1.7,14.42c-1.75,5.05-6.37,3.96-9.11,2.8-2.74-1.16-3.93-2.95-3.93-2.95,0,0-2.67.73-4.27-1.81s-.36-5.26,1.17-5.81c1.53-.55,3.24.63,3.24.63l-1.23-2.74s6.66-13.14,12.44-4.54h0Z"/>
        <path d="M139.08,82.54s-.08,0-.11-.02c-.16-.06-.24-.25-.18-.41.63-1.63-.5-3.53-.51-3.54-.09-.15-.04-.34.11-.43.15-.09.34-.04.43.11.05.09,1.3,2.18.56,4.1-.05.13-.17.2-.3.2h0Z"/>
        <path d="M128.31,82.49c-.09,0-.18-.04-.24-.11l-2.31-2.79c-.11-.14-.09-.33.04-.45.13-.11.33-.09.45.04l2.31,2.79c.11.13.09.33-.04.45-.06.05-.13.07-.2.07h-.01Z"/>
        <path d="M125.73,81.61c-.16,0-.3-.12-.31-.29-.01-.17.11-.33.29-.34l1.73-.15c.17-.02.33.11.34.29s-.11.33-.29.34l-1.73.15h-.03Z"/>
        <path d="M134.33,75.8c-.06,0-.11-.01-.16-.05-.15-.09-.2-.28-.11-.43.71-1.18,2.23-.76,2.3-.74.17.05.26.22.22.39-.05.17-.22.26-.39.22-.05-.01-1.12-.31-1.58.46-.06.1-.16.15-.27.15h0Z"/>
        <path d="M141.08,75.25c-.08,0-.16-.03-.22-.09-.15-.15-.63-.53-1.06-.5-.21.01-.4.12-.57.34-.11.14-.31.16-.44.05-.14-.11-.16-.31-.05-.44.28-.36.63-.55,1.03-.58.81-.04,1.52.66,1.55.69.12.12.12.32,0,.45-.06.06-.14.09-.22.09h-.02Z"/>
        <path d="M140.44,78.37c-.15,0-.29-.11-.31-.27l-.26-1.61c-.03-.17.09-.33.26-.36s.33.09.36.26l.26,1.61c.03.17-.09.33-.26.36h-.05Z"/>
        <path d="M135.96,78.59c-.15,0-.29-.11-.31-.27l-.26-1.61c-.03-.17.09-.33.26-.36s.33.09.36.26l.26,1.61c.03.17-.09.33-.26.36h-.05Z"/>
        <path d="M129.07,78.4s1.98-.31,3.24-2.42c1.26-2.11,1.59-5.18,1.59-5.18,0,0,1.2,1.58,3.82,1.55,2.62-.02,2.42-1.16,2.42-1.16l.89,2.47s2.29-8.57-1.61-9.39-5.41,1.2-5.41,1.2c0,0-6.43.16-9.41,4.38-2.97,4.22-.14,8.77-.14,8.77,0,0,1.83-1.77,4.59-.22h.02Z"/>
        <path class="st17" d="M135.25,95.89c-1.9,0-4.42-.64-6.95-3.15-.11-.11-.11-.29,0-.4s.29-.11.4,0c4.79,4.77,9.47,2.41,9.52,2.39.14-.07.31-.02.38.12s.02.31-.12.38c-.03.01-1.32.67-3.24.67h0Z"/>
        <rect class="st16" x="68.66" y="148.24" width="30.98" height="42.03" rx="6.11" ry="6.11" transform="translate(-87.68 248.01) rotate(-88.19)"/>
        <rect class="st15" x="71.78" y="148.27" width="30.98" height="42.03" rx="6.11" ry="6.11" transform="translate(-84.68 251.17) rotate(-88.19)"/>
        <path class="st15" d="M98.57,162.99l-22.58-.71c-.64-.02-1.14-.55-1.12-1.19l.38-12.09c.04-1.25.56-2.41,1.47-3.26.91-.86,2.11-1.31,3.35-1.27l15.5.49c1.25.04,2.41.56,3.27,1.47.86.91,1.31,2.1,1.27,3.35l-.38,12.09c-.02.63-.53,1.12-1.16,1.12h0ZM77.21,160.01l20.23.64.34-10.93c.02-.63-.21-1.23-.64-1.69s-1.02-.73-1.65-.75l-15.5-.49c-.62-.02-1.23.21-1.7.64-.46.43-.73,1.02-.75,1.65l-.34,10.93h0Z"/>
        <path class="st5" d="M108.3,170.05l-42.03-.97c-.17,0-.31-.15-.31-.32s.14-.31.32-.31l42.03.97c.17,0,.31.15.31.32s-.14.31-.32.31Z"/>
        <path class="st5" d="M87.2,171.95c-.44,0-.88-.11-1.28-.35-.79-.46-1.27-1.32-1.26-2.23,0-.17.14-.31.32-.31s.32.15.32.32c0,.69.35,1.33.95,1.68.91.53,2.08.22,2.61-.68.16-.26.24-.56.26-.87,0-.18.16-.3.33-.3s.31.16.3.33c-.02.41-.14.81-.35,1.16-.47.81-1.32,1.26-2.2,1.26h0Z"/>
        <path class="st0" d="M98.71,134.36s1.27,10.41-.27,11.88l-2.12-.15s-1.76,7.61-4.11,7.18c-2.36-.43-3.1-2.46-3.1-2.46,0,0-9.04-2-9.73-4.65-.69-2.66,4.31-16.21,4.31-16.21l15.02,4.4h0Z"/>
        <path d="M96.12,147.2c-.21-.02-.33-.18-.32-.35l.45-4.21c.02-.17.18-.3.35-.28s.3.17.28.35l-.45,4.21c-.02.16-.15.28-.31.28Z"/>
        <path d="M89.16,151.28h-.07c-.17-.04-.28-.21-.24-.38l.43-1.92c.04-.17.21-.28.38-.24s.28.21.24.38l-.43,1.92c-.03.15-.16.25-.31.25h0Z"/>
        <path class="st1" d="M134.31,95.56s-5.17,6.57-6.74,5.49.92-8.52.92-8.52c0,0,2.49,3.34,5.81,3.03h0Z"/>
        <path class="st1" d="M138.71,94.97s1.48,5.5,1.09,6.11-5.49-5.52-5.49-5.52c0,0,3.06.23,4.4-.59h0Z"/>
        <path class="st11" d="M128.61,90.08s-1.38,52.71-1.96,52.76c-.58.05-19.68-2.33-20.49-3.22s.5-18.52.5-18.52l-7.09,14.67-17.19-2.81s-.84-22.62,16.14-34.91c14.87-10.76,30.09-7.97,30.09-7.97h0Z"/>
        <path class="st5" d="M107.02,121.93c-.17-.02-.28-.12-.31-.25-.07-.37-.69-3.65.18-4.72.2-.24.46-.37.76-.37.39,0,.59.19.7.36.66,1.01-.75,4.19-1.04,4.81-.05.11-.17.18-.29.18h0ZM107.66,117.21c-.12,0-.2.05-.28.14-.39.48-.36,1.9-.22,3.12.51-1.3.92-2.77.65-3.19-.02-.03-.04-.07-.15-.07Z"/>
        <path class="st5" d="M101.63,131.55h-.06l-18.98-3.35c-.17-.03-.29-.19-.26-.37.03-.17.19-.29.37-.26l18.98,3.35c.17.03.29.19.26.37-.03.15-.16.26-.31.26h0Z"/>
        <path class="st11" d="M138.07,91.23s.94,52,1.43,52.02c.49.03,6.48-.89,7.04-1.38s.56-36.99.56-36.99c0,0-3.11-11.61-9.03-13.66h0Z"/>
        <path class="st5" d="M127.46,128.18c-.12,0-.23-.07-.29-.18-.46-.99-4.48-9.73-4.68-10.83-.2-1.07,2.05-5.68,2.74-7.06-.7-.63-3.11-2.88-3.44-4.47-.37-1.8,5.82-14.28,6.53-15.7.08-.16.27-.22.42-.14.16.08.22.27.14.42-2.63,5.28-6.72,14.09-6.48,15.29.33,1.62,3.38,4.26,3.42,4.29.11.09.14.25.08.38-1.15,2.28-2.93,6.16-2.8,6.88.16.86,3.4,8,4.64,10.68.07.16,0,.35-.15.42-.04.02-.09.03-.13.03h0Z"/>
        <path class="st5" d="M141.42,126.88s-.07,0-.1-.02c-.17-.06-.25-.24-.2-.4.82-2.38,2.94-8.81,2.99-9.93.05-1.1-1.69-5.53-2.37-7.15-.05-.13-.02-.28.09-.37,1.35-1.09,3.34-3.21,2.96-4.27-.59-1.62-6.95-13.25-7.01-13.36-.08-.15-.03-.35.13-.43.15-.08.35-.03.43.13.26.48,6.44,11.78,7.05,13.45.6,1.66-2.16,4.14-2.97,4.82.49,1.18,2.38,5.87,2.33,7.2-.06,1.44-2.91,9.75-3.03,10.11-.05.13-.17.21-.3.21h0Z"/>
        <path class="st5" d="M119.86,138.95c-.09,0-8.92-1.12-9.41-1.79-.33-.45.08-5.31.49-9.29.02-.17.16-.29.34-.28l9.41.6c.17,0,.3.15.3.32-.03,2.9-.18,9.72-.83,10.33-.06.06-.2.11-.29.11h0ZM110.97,136.77c.82.4,7.45,1.42,8.77,1.54.31-.79.55-5.3.6-9.51l-8.8-.56c-.38,3.76-.69,7.87-.57,8.54h0Z"/>
        <path d="M137.63,85.18c-1.2,0-2.09-1.23-2.13-1.29-.1-.14-.07-.34.07-.44.14-.1.34-.07.44.07,0,.01.94,1.29,1.95.97.17-.05.34.04.4.21.05.17-.04.34-.21.4-.18.06-.36.08-.53.08h.01Z"/>
      </g>
    </g>
  </g>
</svg>